<?xml version="1.0" encoding="UTF-8" standalone="no"?>
<!DOCTYPE svg PUBLIC "-//W3C//DTD SVG 1.1//EN" "http://www.w3.org/Graphics/SVG/1.1/DTD/svg11.dtd">
<svg xmlns="http://www.w3.org/2000/svg" version="1.1" viewBox="0.00 0.00 995.00 346.00">
<g stroke-width="2.00" fill="none" stroke-linecap="butt">
<path stroke="#808080" vector-effect="non-scaling-stroke" d="
  M 361.83 24.57
  C 358.65 25.69 354.63 25.89 352.50 22.98
  A 1.48 1.44 -8.0 0 0 351.79 22.46
  L 346.27 20.59
  Q 345.70 20.39 345.38 19.88
  Q 345.14 19.48 344.75 19.24
  A 0.67 0.66 27.1 0 0 343.81 19.54
  Q 343.62 19.96 343.29 20.29
  Q 342.90 20.68 342.36 20.77
  L 339.52 21.21
  A 1.52 1.49 16.7 0 0 338.66 21.66
  C 336.26 24.17 334.55 26.37 330.57 26.66
  Q 330.07 26.70 329.68 27.02
  C 328.79 27.75 328.13 28.02 326.88 28.00
  Q 323.22 27.96 319.76 29.28
  Q 319.24 29.48 318.97 29.96
  L 318.39 30.99
  Q 318.13 31.45 317.62 31.58
  L 314.28 32.41
  A 1.21 1.20 -2.5 0 0 313.37 33.40
  Q 312.92 36.38 310.80 38.79
  C 307.44 42.59 311.07 53.74 307.31 55.56
  C 298.87 59.62 294.64 66.78 296.48 76.21
  C 297.09 79.35 297.22 81.09 295.63 84.13
  C 293.66 87.90 290.00 93.33 292.05 96.67
  Q 294.91 101.32 294.04 105.75
  C 293.47 108.63 292.32 113.16 293.26 115.92
  Q 293.75 117.35 295.67 118.75
  C 299.86 121.79 301.12 124.55 303.37 128.22
  C 303.94 129.16 305.02 129.65 305.60 130.70
  C 306.09 131.57 305.96 132.84 306.45 133.90
  Q 306.66 134.35 307.14 134.49
  C 310.05 135.33 312.35 134.89 314.21 137.81
  C 315.81 140.33 314.95 145.72 315.51 148.00
  Q 316.37 151.50 318.02 152.47
  C 320.81 154.09 320.62 155.62 321.43 158.05
  Q 321.59 158.53 321.98 158.84
  Q 323.95 160.37 323.95 163.00
  Q 324.00 222.00 323.94 281.00
  C 323.94 283.65 321.42 284.04 321.13 286.80
  C 320.97 288.29 320.99 289.58 320.34 291.01
  Q 317.68 296.82 317.98 303.23
  C 318.12 306.50 316.04 308.64 316.64 311.90
  C 317.30 315.49 318.98 321.74 322.24 323.55
  Q 327.68 326.54 337.08 330.18
  C 339.25 331.02 341.33 331.14 343.59 332.15
  C 346.98 333.65 350.72 333.89 353.96 334.90
  Q 359.92 336.77 366.19 337.17
  Q 367.69 337.26 369.19 337.88
  C 372.11 339.10 375.52 338.72 378.62 339.18
  C 385.84 340.24 393.26 340.01 400.55 339.99
  Q 402.01 339.98 404.30 340.78
  C 408.48 342.23 410.49 339.99 414.27 339.99
  C 420.80 339.99 426.68 340.36 431.60 339.36
  C 434.94 338.68 438.20 338.98 441.56 338.13
  Q 445.42 337.16 447.55 336.94
  C 453.04 336.38 456.88 335.11 461.40 333.99
  Q 464.52 333.23 466.49 332.48
  C 469.76 331.25 473.26 330.47 476.28 329.16
  C 485.17 325.31 498.47 320.15 501.08 309.98
  C 503.14 301.98 500.08 291.83 496.38 284.85
  C 493.73 279.85 493.79 277.44 493.93 272.00
  C 493.98 269.76 493.57 268.65 495.57 267.18
  Q 498.70 264.87 501.24 264.61
  Q 510.58 263.63 519.27 260.16
  C 521.77 259.17 523.85 257.38 526.12 255.85
  C 528.19 254.45 533.01 252.89 534.42 249.66
  Q 535.36 247.51 536.18 246.15
  C 540.25 239.42 544.09 230.97 545.08 223.16
  Q 546.76 209.89 545.69 196.57
  Q 545.10 189.20 545.02 183.38
  C 544.92 176.16 544.30 169.58 543.91 161.83
  C 543.64 156.41 542.36 150.94 542.02 145.91
  C 541.41 137.05 539.86 129.65 535.42 121.34
  C 534.41 119.44 531.19 118.90 531.01 115.43
  Q 530.99 114.94 530.58 114.68
  Q 527.06 112.36 523.30 110.46
  C 521.17 109.39 518.79 107.16 515.50 106.92
  C 513.00 106.74 511.49 105.28 508.74 105.24
  Q 504.25 105.16 499.76 105.11
  C 494.55 105.06 497.72 95.98 498.07 93.47
  A 2.67 2.64 -18.1 0 1 498.85 91.95
  C 502.39 88.57 509.73 84.42 506.59 78.48
  Q 504.11 73.78 504.38 69.46
  Q 504.65 65.29 504.47 64.59
  C 502.75 57.59 497.25 60.57 494.57 55.88
  C 493.34 53.70 494.26 50.89 492.96 48.36
  C 491.59 45.65 487.59 40.28 484.16 40.08
  Q 482.62 39.99 477.01 39.73
  Q 476.23 39.70 474.95 38.00
  Q 472.23 34.37 466.94 33.79
  C 466.33 33.72 465.93 33.39 465.45 33.07
  Q 465.05 32.81 464.65 33.06
  Q 462.33 34.54 459.67 34.05
  C 457.60 33.67 456.39 31.61 454.72 30.33
  A 1.84 1.82 19.3 0 1 454.00 28.86
  C 454.05 25.37 454.73 20.55 451.46 18.16
  C 449.64 16.84 449.03 15.81 447.69 14.32
  C 446.65 13.16 445.37 12.94 444.02 12.22
  A 1.60 1.57 2.1 0 1 443.34 11.50
  C 441.98 8.56 439.07 9.29 436.52 7.93
  C 429.29 4.07 419.66 6.26 413.77 11.08
  C 412.44 12.17 411.41 12.26 410.21 13.81
  C 409.25 15.05 408.73 15.49 407.06 15.97
  C 403.61 16.94 401.98 19.73 398.21 16.60
  C 395.65 14.48 390.81 14.85 387.55 15.20
  A 1.53 1.53 0.0 0 0 386.31 16.10
  L 385.47 18.01
  Q 385.26 18.48 384.78 18.70
  Q 383.20 19.41 381.91 18.42
  Q 381.37 18.00 381.17 18.66
  Q 380.37 21.28 377.50 21.17
  Q 371.48 20.92 365.03 21.03
  A 1.71 1.69 12.8 0 0 363.55 21.95
  L 362.50 23.98
  A 1.22 1.20 -85.9 0 1 361.83 24.57"
/>
<path stroke="#ffe6a4" vector-effect="non-scaling-stroke" d="
  M 336.99 270.11
  Q 337.26 271.12 337.80 272.05
  Q 342.25 279.75 350.71 282.42
  C 385.54 293.40 422.44 294.09 457.58 283.13
  C 468.06 279.87 475.23 275.98 478.57 265.78
  Q 479.99 261.44 479.84 251.56
  Q 479.32 217.16 478.81 182.75
  C 478.51 162.69 477.28 142.61 476.30 122.53
  A 1.34 1.33 11.1 0 0 475.53 121.39
  L 467.88 117.82
  A 0.86 0.85 12.6 0 0 466.66 118.59
  Q 466.79 166.36 466.74 214.49
  Q 466.74 218.71 466.91 224.99
  C 467.08 231.12 469.04 243.15 462.38 246.50
  C 458.58 248.41 455.00 246.20 454.26 242.23
  Q 452.93 235.07 452.89 225.75
  Q 452.72 177.68 452.79 129.81
  A 1.36 1.36 0.0 0 0 451.82 128.51
  L 445.09 126.47
  Q 444.17 126.19 443.49 126.87
  C 437.69 132.67 429.98 131.85 423.35 128.29
  A 0.86 0.85 27.9 0 0 422.19 128.64
  Q 413.82 144.22 395.79 142.33
  A 0.53 0.52 85.1 0 0 395.23 143.00
  C 399.20 156.28 391.56 165.78 382.16 173.74
  C 381.39 174.39 380.54 175.64 380.40 176.47
  C 377.56 192.67 368.37 204.08 351.01 204.46
  Q 341.13 204.67 335.07 197.85
  Q 333.07 195.61 332.89 198.61
  C 332.73 201.29 333.37 204.47 333.41 207.13
  Q 333.87 234.62 334.13 262.12
  C 334.16 264.60 334.94 266.46 335.85 268.68
  A 0.62 0.57 88.0 0 0 336.18 269.01
  Q 336.37 269.09 336.51 269.25
  Q 336.89 269.73 336.99 270.11"
/>
<path stroke="#808080" vector-effect="non-scaling-stroke" d="
  M 509.79 238.30
  C 514.39 235.68 518.87 230.14 520.89 225.09
  C 525.54 213.41 524.07 199.61 524.01 187.42
  Q 524.00 186.01 523.76 184.09
  C 522.62 174.81 523.90 165.41 522.20 156.30
  C 521.25 151.20 520.81 145.11 518.65 140.78
  C 514.16 131.78 506.38 127.91 498.53 136.29
  Q 494.37 140.73 489.95 144.57
  A 2.87 2.84 69.8 0 0 488.97 146.73
  Q 488.97 158.61 489.00 171.00
  C 489.01 174.71 490.26 178.42 490.42 181.68
  Q 490.95 192.30 490.98 202.93
  C 490.99 206.61 491.93 210.12 491.94 213.86
  Q 491.97 224.74 492.01 235.63
  Q 492.02 238.20 493.03 239.63
  C 496.82 245.00 505.42 240.79 509.79 238.30"
/>
<path stroke="#743b2e" vector-effect="non-scaling-stroke" d="
  M 209.80 92.45
  C 210.07 107.25 210.93 121.06 217.29 134.26"
/>
<path stroke="#804638" vector-effect="non-scaling-stroke" d="
  M 217.29 134.26
  C 220.16 140.28 224.66 145.17 230.76 147.39
  C 233.81 148.50 236.99 149.52 239.34 151.40
  C 248.75 158.96 245.55 171.44 243.74 181.75
  C 242.55 188.55 244.96 193.37 249.49 199.06
  C 254.39 205.22 257.73 210.31 260.76 217.32
  C 263.41 223.43 265.92 227.90 271.53 230.20
  C 277.85 232.78 284.50 235.96 291.07 237.74
  Q 291.60 237.89 291.89 237.42
  L 294.85 232.75"
/>
<path stroke="#651b0c" vector-effect="non-scaling-stroke" d="
  M 294.85 232.75
  L 296.32 227.46
  Q 296.80 225.69 294.97 225.58
  C 282.78 224.85 273.24 227.22 264.92 215.54"
/>
<path stroke="#804638" vector-effect="non-scaling-stroke" d="
  M 264.92 215.54
  L 260.05 204.41"
/>
<path stroke="#651b0c" vector-effect="non-scaling-stroke" d="
  M 260.05 204.41
  Q 258.01 191.53 258.73 185.75
  C 260.68 170.13 264.81 151.42 250.18 140.07
  C 241.96 133.70 230.95 133.67 224.33 124.71
  C 216.43 114.04 219.15 101.22 220.21 89.25
  Q 221.18 78.30 218.31 65.00
  Q 214.27 46.26 202.77 33.64"
/>
<path stroke="#804638" vector-effect="non-scaling-stroke" d="
  M 202.77 33.64
  Q 201.50 32.42 199.26 32.56
  Q 197.27 32.68 195.55 32.97
  Q 194.91 33.08 195.26 33.62
  C 206.40 51.25 209.03 71.86 209.80 92.45"
/>
<path stroke="#e56144" vector-effect="non-scaling-stroke" d="
  M 202.77 33.64
  L 209.73 52.29"
/>
<path stroke="#f38166" vector-effect="non-scaling-stroke" d="
  M 209.73 52.29
  Q 207.00 57.19 208.07 62.74
  Q 208.86 66.88 209.64 71.03
  C 210.05 73.20 209.79 75.65 210.26 77.99
  Q 210.94 81.41 210.95 83.10
  Q 210.98 88.11 211.06 92.91
  Q 211.08 94.39 210.08 93.31
  Q 210.06 93.29 209.80 92.45"
/>
<path stroke="#e56144" vector-effect="non-scaling-stroke" d="
  M 260.05 204.41
  Q 255.86 198.59 252.20 193.52
  Q 247.67 187.24 248.93 179.47
  C 250.89 167.29 252.28 156.65 242.08 148.15
  C 238.83 145.44 233.10 143.12 230.01 140.75
  Q 226.87 138.34 223.39 132.76"
/>
<path stroke="#d9563a" vector-effect="non-scaling-stroke" d="
  M 223.39 132.76
  C 219.49 124.58 216.68 118.58 215.89 108.48
  Q 214.12 85.70 211.49 63.00
  Q 210.89 57.79 209.73 52.29"
/>
<path stroke="#f38166" vector-effect="non-scaling-stroke" d="
  M 223.39 132.76
  L 217.29 134.26"
/>
<path stroke="#e56144" vector-effect="non-scaling-stroke" d="
  M 264.92 215.54
  Q 265.76 219.23 268.07 222.13
  C 269.71 224.20 274.19 226.57 276.76 227.10
  Q 286.04 229.04 294.85 232.75"
/>
<path stroke="#651b0c" vector-effect="non-scaling-stroke" d="
  M 207.21 83.50
  C 206.30 65.67 202.66 49.34 193.25 33.89
  A 0.67 0.66 67.9 0 0 192.53 33.58
  L 183.49 35.68
  A 1.44 1.43 79.9 0 0 182.39 37.27
  C 183.56 46.22 186.63 52.89 190.15 61.07
  C 192.11 65.61 191.40 70.00 191.33 74.50
  C 191.18 83.42 198.51 91.83 200.50 100.72
  C 202.41 109.20 200.37 118.35 201.07 126.69
  Q 201.73 134.42 204.42 141.64
  C 207.32 149.41 213.17 156.30 218.82 162.67
  Q 227.22 172.15 232.65 183.51
  C 237.93 194.57 238.43 209.40 249.68 216.62
  Q 255.98 220.66 259.03 222.95
  C 261.25 224.61 262.93 227.11 264.68 229.34
  C 266.93 232.20 269.63 236.55 272.66 239.80
  C 275.62 242.98 279.72 244.58 283.53 246.73
  Q 283.77 246.86 283.95 246.66
  L 290.15 239.91
  A 0.19 0.18 32.2 0 0 290.08 239.61
  Q 281.81 236.25 273.52 232.95
  Q 268.77 231.06 266.45 229.25
  C 261.55 225.45 259.31 219.02 256.85 213.67
  C 251.56 202.16 239.71 196.04 241.95 181.25
  C 243.41 171.59 247.33 158.94 237.12 151.95
  C 235.36 150.75 232.99 150.08 230.89 149.34
  C 207.26 140.95 208.21 103.03 207.21 83.50"
/>
<path stroke="#743b2e" vector-effect="non-scaling-stroke" d="
  M 250.23 240.42
  Q 259.63 253.70 276.80 252.90
  C 278.85 252.80 280.74 250.30 282.19 248.43
  Q 282.50 248.02 282.03 247.83
  Q 276.22 245.46 271.67 241.69"
/>
<path stroke="#804638" vector-effect="non-scaling-stroke" d="
  M 271.67 241.69
  Q 266.68 235.54 262.35 229.38
  C 258.83 224.38 254.60 221.84 249.56 218.66
  C 236.01 210.11 236.19 194.61 229.70 181.66
  C 224.52 171.35 216.42 162.49 209.09 153.65
  Q 205.85 149.74 202.96 143.32"
/>
<path stroke="#743b2e" vector-effect="non-scaling-stroke" d="
  M 202.96 143.32
  Q 198.59 131.57 198.85 119.25
  Q 198.97 113.71 199.36 109.08"
/>
<path stroke="#804638" vector-effect="non-scaling-stroke" d="
  M 199.36 109.08
  Q 199.33 100.16 196.17 94.05
  Q 191.95 85.87 190.79 82.01
  C 189.25 76.83 189.42 73.31 189.56 67.20
  C 189.65 63.39 187.99 60.59 186.17 56.79
  C 183.16 50.55 181.44 44.02 180.48 37.10
  Q 180.35 36.11 179.37 36.32
  L 158.77 40.84
  A 0.56 0.55 55.2 0 0 158.59 41.85
  C 165.39 46.18 170.47 52.61 171.76 60.75
  C 173.44 71.38 174.41 79.52 178.31 87.19
  C 181.37 93.20 185.04 99.16 184.46 105.50
  C 183.44 116.72 181.19 130.06 182.44 140.50
  C 184.26 155.67 194.17 153.22 202.40 161.71
  C 210.34 169.90 209.35 181.51 212.97 189.27
  Q 215.60 194.91 217.75 200.66
  A 2.15 2.14 -88.7 0 0 218.89 201.86
  Q 226.68 205.20 231.90 212.34
  C 238.50 221.37 243.64 231.20 250.23 240.42"
/>
<path stroke="#f38166" vector-effect="non-scaling-stroke" d="
  M 199.36 109.08
  Q 193.11 116.56 191.40 125.87
  Q 190.16 132.57 191.99 136.98
  Q 194.69 143.48 202.96 143.32"
/>
<path stroke="#f38166" vector-effect="non-scaling-stroke" d="
  M 271.67 241.69
  Q 270.36 241.94 268.64 240.26
  Q 268.27 239.90 267.76 239.81
  C 258.30 238.12 248.35 227.66 244.96 218.75
  Q 244.83 218.41 244.87 217.94
  Q 244.92 217.43 244.61 217.02
  Q 242.37 214.04 240.11 211.08
  Q 237.83 208.09 235.03 205.75
  Q 232.21 203.40 229.34 201.10
  C 225.44 197.97 221.06 195.49 216.75 192.88
  Q 216.26 192.58 216.35 193.15
  Q 216.62 194.94 217.58 196.52
  Q 217.83 196.94 217.91 197.43
  Q 218.24 199.57 219.84 200.87
  A 1.51 1.49 -22.2 0 0 220.59 201.18
  Q 221.37 201.27 221.71 201.82
  Q 221.90 202.13 222.22 202.31
  Q 229.42 206.32 233.95 213.08
  Q 235.92 216.02 236.13 216.32
  Q 237.94 218.86 238.30 219.58
  A 16.65 1.36 65.9 0 0 241.55 225.50
  L 247.68 235.09
  A 0.92 0.88 87.6 0 0 247.99 235.39
  Q 248.71 235.82 248.94 236.66
  Q 249.05 237.10 249.40 237.39
  Q 251.10 238.82 250.23 240.42"
/>
<path stroke="#651b0c" vector-effect="non-scaling-stroke" d="
  M 111.63 57.12
  C 113.65 63.34 112.68 72.17 114.69 78.20
  Q 116.90 84.82 122.13 90.13
  C 132.75 100.89 141.22 113.16 149.97 125.61
  C 155.19 133.04 154.74 140.40 154.39 149.00
  Q 153.86 162.21 157.14 174.82
  C 160.00 185.79 162.81 192.63 170.47 200.28
  C 177.14 206.94 183.88 212.02 192.49 212.26
  Q 196.09 212.36 198.44 213.56
  C 203.72 216.26 207.87 219.81 214.26 220.48
  C 229.90 222.12 237.69 235.91 244.65 248.86
  C 246.98 253.21 249.12 255.73 253.28 257.70
  Q 259.38 260.59 265.69 263.05
  C 271.00 265.12 275.30 262.72 280.22 263.58
  Q 284.52 264.33 288.34 266.42
  A 0.75 0.75 0.0 0 0 289.35 266.14
  Q 291.25 262.95 292.43 259.24
  C 293.64 255.45 289.04 253.46 286.00 253.57
  C 281.76 253.72 277.17 254.83 273.48 254.70
  C 261.14 254.24 252.68 248.16 246.13 238.08
  Q 239.52 227.89 233.24 217.48
  C 226.18 205.76 216.36 201.66 202.92 199.36
  C 201.97 199.20 201.01 199.52 200.02 198.68
  A 1.88 1.87 -19.6 0 0 199.15 198.27
  Q 188.35 196.32 181.55 192.21
  C 167.69 183.81 161.91 167.55 163.12 151.76
  Q 163.84 142.37 164.54 132.99
  C 165.21 124.12 164.92 117.67 161.36 110.59
  C 156.22 100.36 149.15 95.04 140.15 88.55
  C 129.73 81.05 127.61 67.16 124.30 55.33
  C 121.27 44.51 114.08 36.08 101.79 39.94
  A 0.34 0.33 -28.4 0 0 101.63 40.47
  C 105.90 45.71 109.29 49.94 111.63 57.12"
/>
<path stroke="#651b0c" vector-effect="non-scaling-stroke" d="
  M 94.39 44.08
  L 77.97 53.63
  Q 77.37 53.98 77.46 54.66
  Q 77.60 55.79 78.00 57.27
  Q 84.18 80.11 99.45 97.71
  C 103.79 102.72 111.80 109.80 116.59 115.96
  C 124.89 126.63 126.32 139.71 128.75 152.86
  C 130.35 161.47 133.53 172.10 135.17 181.95
  C 135.56 184.29 136.95 186.37 137.16 189.02
  Q 137.20 189.53 137.49 189.95
  Q 141.63 195.93 143.53 202.95
  C 143.88 204.23 144.93 205.26 145.42 206.53
  C 151.12 221.41 161.14 231.03 175.55 237.84
  C 180.48 240.17 185.37 240.80 190.64 241.80
  C 191.85 242.03 192.77 242.73 193.83 243.32
  Q 194.27 243.56 194.76 243.48
  Q 207.84 241.38 217.63 249.39
  Q 226.00 256.24 236.30 266.95
  C 238.80 269.54 244.87 272.76 248.66 275.43
  Q 249.46 275.99 250.33 275.56
  L 263.30 269.07"
/>
<path stroke="#804638" vector-effect="non-scaling-stroke" d="
  M 263.30 269.07
  L 267.50 270.30"
/>
<path stroke="#651b0c" vector-effect="non-scaling-stroke" d="
  M 267.50 270.30
  C 270.26 272.88 269.51 276.92 269.06 280.25
  A 0.73 0.73 0.0 0 0 269.50 281.03
  L 278.38 284.73
  Q 279.01 285.00 279.33 284.39
  L 284.68 274.08"
/>
<path stroke="#804638" vector-effect="non-scaling-stroke" d="
  M 284.68 274.08
  L 287.85 268.86
  A 0.14 0.14 0.0 0 0 287.80 268.67
  Q 283.40 265.87 278.26 265.32
  C 274.05 264.88 270.71 267.01 266.00 265.19
  Q 260.98 263.24 254.22 260.00
  C 248.43 257.23 245.17 254.42 242.62 248.89
  Q 237.76 238.35 229.80 229.98
  Q 223.65 223.51 214.74 222.71
  C 208.88 222.18 204.85 219.62 199.96 216.76
  C 196.31 214.62 194.33 214.43 190.25 214.19
  C 181.00 213.66 169.89 203.08 164.44 196.29
  C 158.32 188.65 155.60 177.68 153.75 168.50
  C 152.00 159.78 152.45 148.85 152.71 141.25
  C 152.94 134.62 150.21 129.37 146.43 123.85
  Q 139.79 114.16 132.72 104.64"
/>
<path stroke="#743b2e" vector-effect="non-scaling-stroke" d="
  M 132.72 104.64
  C 128.41 99.31 123.64 94.52 119.08 89.42
  C 111.58 81.03 111.64 72.87 110.65 62.00
  C 109.96 54.30 105.37 47.73 99.89 41.46
  Q 99.56 41.07 99.12 41.33
  L 94.39 44.08"
/>
<path stroke="#f38166" vector-effect="non-scaling-stroke" d="
  M 132.72 104.64
  Q 129.53 104.56 127.30 106.59"
/>
<path stroke="#d9563a" vector-effect="non-scaling-stroke" d="
  M 127.30 106.59
  C 117.41 96.19 107.10 87.38 107.17 71.54
  C 107.22 59.87 102.52 52.05 94.39 44.08"
/>
<path stroke="#e56144" vector-effect="non-scaling-stroke" d="
  M 127.30 106.59
  Q 136.10 117.97 138.43 121.57
  C 142.56 127.97 148.62 137.90 148.32 142.00
  C 146.62 165.50 149.29 188.68 166.72 205.52
  C 175.56 214.06 181.66 219.33 192.67 220.41
  Q 195.11 220.65 197.10 221.79
  C 201.24 224.17 204.68 226.64 209.42 227.86
  C 213.29 228.86 216.74 227.80 220.41 229.88
  C 227.49 233.91 233.35 242.30 237.95 249.25
  C 241.70 254.93 244.97 259.46 249.77 262.01
  Q 256.35 265.52 263.30 269.07"
/>
<path stroke="#e56144" vector-effect="non-scaling-stroke" d="
  M 284.68 274.08
  Q 279.18 270.77 276.65 270.61
  Q 272.07 270.33 267.50 270.30"
/>
<path stroke="#651b0c" vector-effect="non-scaling-stroke" d="
  M 154.97 42.34
  L 147.75 46.35
  A 1.19 1.18 -29.7 0 0 147.30 47.99
  Q 156.08 62.73 160.84 79.48
  C 163.39 88.43 163.90 95.04 163.56 104.50
  C 163.50 106.17 164.00 107.80 164.10 109.49
  C 164.34 113.75 166.50 117.77 166.72 121.77
  Q 167.38 133.77 165.39 148.77
  C 164.70 153.97 166.45 158.26 169.11 162.57
  C 174.33 171.01 182.20 169.36 189.86 173.83
  C 198.01 178.57 201.51 186.50 201.93 195.88
  A 1.29 1.29 0.0 0 0 202.89 197.06
  L 215.09 200.31
  A 0.35 0.35 0.0 0 0 215.50 199.82
  Q 212.61 193.77 210.56 187.66
  C 206.85 176.58 207.76 165.64 196.10 159.17
  C 188.98 155.22 182.25 152.45 180.90 143.26
  C 179.23 131.83 180.97 120.13 182.45 108.00
  C 183.65 98.26 177.95 91.45 174.69 83.37
  C 171.97 76.64 171.15 68.53 170.03 60.99
  C 168.81 52.79 163.09 46.33 156.00 42.34
  Q 155.48 42.05 154.97 42.34"
/>
<path stroke="#804638" vector-effect="non-scaling-stroke" d="
  M 102.60 103.66
  C 89.34 90.58 80.15 74.09 75.62 55.72
  A 0.53 0.53 0.0 0 0 74.85 55.38
  L 55.62 65.99
  A 0.61 0.60 -22.1 0 0 55.33 66.66
  C 55.52 67.48 55.74 67.80 55.68 68.66
  C 55.07 77.76 59.94 86.90 66.68 92.57
  Q 72.75 97.67 79.21 102.34
  Q 98.29 116.13 99.03 140.00
  C 99.47 153.96 102.16 167.70 108.85 179.93
  Q 109.11 180.40 109.63 180.30
  Q 123.40 177.75 133.96 186.52
  Q 135.05 187.42 134.54 186.11
  C 132.46 180.62 131.94 174.15 130.55 169.09
  C 127.76 158.96 126.11 148.68 124.20 138.25
  C 121.39 122.95 113.68 114.60 102.60 103.66"
/>
<path stroke="#651b0c" vector-effect="non-scaling-stroke" d="
  M 76.88 148.46
  C 76.36 151.56 75.74 155.61 75.64 158.40
  Q 75.11 173.12 86.16 183.36
  C 87.49 184.59 88.36 185.37 90.32 184.94
  Q 98.66 183.10 106.75 180.68
  A 0.20 0.20 0.0 0 0 106.87 180.40
  Q 99.63 166.25 98.01 150.47
  Q 97.46 145.08 97.04 139.67
  C 96.04 127.00 92.94 117.12 83.57 108.13
  C 76.47 101.32 66.84 96.61 61.00 89.36
  Q 53.47 80.00 53.65 67.19
  A 0.27 0.27 0.0 0 0 53.26 66.95
  Q 45.03 70.93 36.02 72.45
  A 1.60 1.60 0.0 0 0 34.70 73.87
  C 33.51 86.38 41.39 98.28 51.59 104.79
  C 57.20 108.36 64.04 109.70 68.90 113.96
  C 77.75 121.71 78.73 137.33 76.88 148.46"
/>
<path stroke="#804638" vector-effect="non-scaling-stroke" d="
  M 32.43 151.16
  Q 29.62 153.00 27.45 155.84"
/>
<path stroke="#651b0c" vector-effect="non-scaling-stroke" d="
  M 27.45 155.84
  L 18.65 167.65
  Q 18.36 168.03 18.73 168.35
  C 26.04 174.64 28.14 181.38 31.89 190.16
  C 39.69 208.40 54.18 212.03 72.00 215.27
  Q 78.99 216.54 90.98 220.86
  Q 104.90 225.88 114.21 233.06
  Q 122.06 239.11 124.71 243.06
  Q 131.38 253.06 140.40 260.92
  C 142.46 262.72 143.92 265.34 146.00 267.00
  C 146.97 267.77 148.46 267.95 149.58 268.84
  C 155.66 273.66 160.20 276.05 167.00 276.73
  C 173.70 277.39 180.49 278.05 186.92 280.75
  C 193.11 283.34 199.62 288.68 205.32 291.67
  C 213.91 296.19 222.40 296.62 232.50 296.71
  Q 236.62 296.74 242.73 298.56
  Q 253.48 301.76 259.45 304.05
  Q 259.87 304.22 260.02 303.79
  L 262.46 296.83"
/>
<path stroke="#804638" vector-effect="non-scaling-stroke" d="
  M 262.46 296.83
  L 264.59 291.41
  A 0.35 0.35 0.0 0 0 264.15 290.95
  Q 258.30 293.04 252.00 292.95
  C 245.61 292.85 241.19 287.95 234.95 287.13
  Q 229.66 286.44 229.56 286.41
  C 212.51 281.80 207.37 260.27 190.08 257.47"
/>
<path stroke="#743b2e" vector-effect="non-scaling-stroke" d="
  M 190.08 257.47
  Q 184.76 256.77 179.54 257.94
  C 167.90 260.57 158.98 250.79 150.37 244.56"
/>
<path stroke="#804638" vector-effect="non-scaling-stroke" d="
  M 150.37 244.56
  Q 142.84 239.94 140.23 238.05
  C 133.20 232.98 128.31 224.81 123.51 217.47
  Q 117.61 208.44 107.87 203.79
  C 99.40 199.74 91.31 201.50 84.50 201.28
  Q 74.47 200.96 64.95 195.78
  C 52.02 188.76 46.88 178.02 41.97 164.75
  Q 39.60 158.34 32.87 152.80
  Q 32.45 152.46 32.36 152.08
  Q 32.26 151.61 32.43 151.16"
/>
<path stroke="#651b0c" vector-effect="non-scaling-stroke" d="
  M 32.43 151.16
  C 36.71 151.38 42.16 160.42 43.63 163.87
  C 45.66 168.62 47.36 174.53 49.99 178.86
  Q 61.33 197.56 83.87 199.26
  C 89.52 199.68 95.11 198.40 100.55 199.53
  C 111.20 201.72 119.34 207.54 125.26 216.57
  C 128.47 221.49 131.64 226.90 135.22 231.00
  Q 139.11 235.45 142.06 237.20
  Q 151.67 242.94 160.44 249.88
  C 163.48 252.28 167.60 255.16 170.59 255.92
  C 177.27 257.64 182.24 254.44 188.62 255.05
  C 207.27 256.82 213.02 278.09 226.96 283.68
  C 230.33 285.04 234.92 285.20 238.92 286.27
  Q 240.55 286.71 245.57 289.44
  C 250.85 292.31 259.56 290.67 265.09 288.75
  Q 265.61 288.57 265.73 288.04
  Q 266.72 283.56 267.22 275.75
  C 267.63 269.37 261.65 271.54 258.69 273.17
  Q 253.12 276.24 247.38 279.02
  C 238.84 283.15 230.67 274.49 227.37 267.71
  C 225.36 263.58 223.28 258.67 220.71 255.38
  C 214.16 246.96 202.10 242.60 191.74 246.46
  C 187.06 248.22 181.50 252.49 175.50 251.44
  C 160.66 248.85 151.85 236.92 147.51 223.01
  Q 143.94 211.55 140.19 200.17
  Q 134.94 184.23 119.12 182.12
  C 101.28 179.73 84.48 195.55 67.28 181.98
  C 61.21 177.20 58.18 172.02 55.46 164.34
  C 53.28 158.16 50.00 144.31 40.41 146.91
  Q 35.85 148.15 32.43 151.16"
/>
<path stroke="#f38166" vector-effect="non-scaling-stroke" d="
  M 150.37 244.56
  C 149.99 245.60 148.82 246.32 148.67 247.19
  Q 148.54 247.97 149.14 248.75
  A 0.49 0.49 0.0 0 1 148.88 249.52
  Q 148.68 249.58 148.30 249.53"
/>
<path stroke="#e56144" vector-effect="non-scaling-stroke" d="
  M 148.30 249.53
  Q 139.89 245.17 136.24 242.31
  C 129.88 237.34 126.53 232.02 122.25 225.99
  C 116.96 218.52 108.54 209.09 99.50 207.03
  Q 93.89 205.76 82.75 204.85
  C 68.63 203.69 53.30 197.27 46.64 183.82
  C 41.60 173.63 36.36 163.17 27.45 155.84"
/>
<path stroke="#d9563a" vector-effect="non-scaling-stroke" d="
  M 148.30 249.53
  C 159.41 256.52 165.59 266.59 180.72 263.63
  Q 183.36 263.11 185.72 262.91"
/>
<path stroke="#e56144" vector-effect="non-scaling-stroke" d="
  M 185.72 262.91
  C 195.81 263.99 203.85 273.13 210.48 279.96
  C 215.35 284.99 220.32 288.49 226.62 290.12
  Q 234.53 292.17 239.99 294.94
  C 241.35 295.63 243.08 296.29 244.25 296.53
  Q 250.22 297.74 262.46 296.83"
/>
<path stroke="#f38166" vector-effect="non-scaling-stroke" d="
  M 190.08 257.47
  Q 189.00 257.90 189.04 258.73
  Q 189.06 259.25 188.72 259.63
  L 185.72 262.91"
/>
<path stroke="#804638" vector-effect="non-scaling-stroke" d="
  M 14.21 186.34
  C 18.47 193.96 19.87 202.38 23.85 210.16
  C 26.48 215.33 30.21 217.88 35.47 219.97
  C 40.55 221.99 44.39 226.26 49.53 227.73
  C 56.83 229.81 64.73 226.86 72.19 227.87
  Q 84.64 229.56 92.80 238.98
  Q 101.84 249.42 105.12 251.65
  Q 111.06 255.68 116.84 259.95
  C 125.05 265.99 133.87 281.83 144.50 282.42
  C 148.20 282.63 153.07 281.95 156.76 284.03
  C 163.56 287.85 168.75 296.14 174.56 301.69
  C 180.79 307.64 188.23 305.50 195.84 303.38
  C 205.95 300.57 212.70 304.96 220.38 310.65
  C 227.54 315.96 231.02 314.22 239.00 312.69
  C 244.00 311.73 249.34 314.09 254.19 316.07
  Q 254.61 316.24 254.79 315.82
  L 259.03 306.20
  Q 259.25 305.72 258.74 305.57
  L 235.80 298.97"
/>
<path stroke="#743b2e" vector-effect="non-scaling-stroke" d="
  M 235.80 298.97
  C 227.65 298.22 220.05 298.74 211.97 296.50"
/>
<path stroke="#804638" vector-effect="non-scaling-stroke" d="
  M 211.97 296.50
  Q 204.09 293.34 196.72 288.73
  C 188.70 283.72 183.32 280.29 175.75 279.55
  C 171.05 279.09 165.65 278.80 161.47 277.60
  Q 153.35 275.28 148.36 269.87
  C 142.28 263.29 134.42 258.91 129.32 252.18
  C 119.53 239.24 111.76 230.80 96.24 224.71
  Q 83.28 219.63 77.76 218.52
  C 58.55 214.66 42.10 212.51 31.84 194.53
  C 27.59 187.09 26.46 179.21 20.30 172.61"
/>
<path stroke="#743b2e" vector-effect="non-scaling-stroke" d="
  M 20.30 172.61
  Q 19.74 171.57 17.97 170.25
  Q 17.53 169.92 17.20 170.36
  L 10.16 179.74
  A 0.62 0.61 -44.2 0 0 10.14 180.46
  L 14.21 186.34"
/>
<path stroke="#f38166" vector-effect="non-scaling-stroke" d="
  M 20.30 172.61
  L 16.87 184.50
  A 1.39 1.35 80.5 0 1 16.38 185.21
  Q 15.40 185.95 14.21 186.34"
/>
<path stroke="#f38166" vector-effect="non-scaling-stroke" d="
  M 211.97 296.50
  C 214.16 311.62 229.58 308.81 235.80 298.97"
/>
<path stroke="#651b0c" vector-effect="non-scaling-stroke" d="
  M 125.86 291.29
  Q 133.91 292.17 141.96 293.18
  Q 149.13 294.09 152.75 295.93
  C 164.10 301.70 167.90 315.24 178.59 321.16
  C 184.08 324.20 189.24 322.80 194.92 321.50
  Q 202.64 319.74 212.39 320.41
  C 222.19 321.08 228.99 325.44 237.18 330.14
  Q 241.09 332.38 248.44 332.04
  Q 248.87 332.02 249.02 331.61
  L 253.60 318.55
  Q 253.73 318.19 253.40 317.99
  Q 248.44 315.01 242.80 314.56
  C 236.26 314.05 229.87 318.39 223.58 314.93
  C 216.57 311.08 211.98 305.09 202.63 304.27
  C 198.60 303.92 194.42 305.60 190.50 306.91
  C 182.06 309.75 173.64 304.46 168.44 298.04
  C 164.16 292.76 157.42 283.89 150.76 284.12
  C 145.99 284.29 142.12 284.75 137.82 282.14
  C 131.55 278.32 126.72 272.51 122.09 266.91
  C 116.76 260.45 107.42 256.26 101.40 250.61
  C 91.56 241.38 86.07 230.83 70.51 229.51
  C 63.79 228.94 55.34 231.74 48.05 229.16
  C 44.81 228.02 42.27 225.88 39.52 224.08
  C 34.56 220.83 28.83 219.96 24.97 215.02
  C 20.50 209.30 18.27 201.75 15.90 194.81
  Q 13.47 187.70 8.94 181.91
  A 0.60 0.59 47.7 0 0 8.04 181.86
  L 2.81 187.41
  Q 2.44 187.79 2.61 188.30
  C 7.50 202.75 9.51 219.39 21.62 229.34
  C 27.61 234.27 36.35 238.64 44.24 238.54
  Q 52.63 238.44 60.99 238.36
  Q 82.58 238.14 93.98 254.45
  Q 95.68 256.88 99.45 264.77
  C 104.80 275.94 111.74 289.75 125.86 291.29"
/>
<path stroke="#743b2e" vector-effect="non-scaling-stroke" d="
  M 148.67 220.04
  C 153.84 234.02 158.66 245.61 174.50 249.15
  C 180.91 250.58 185.43 247.20 190.42 244.81
  Q 192.68 243.72 190.18 243.49
  C 172.53 241.82 157.32 230.82 147.93 216.17
  A 0.25 0.25 0.0 0 0 147.47 216.36
  Q 147.81 217.73 148.67 220.04"
/>
<path stroke="#743b2e" vector-effect="non-scaling-stroke" d="
  M 227.17 263.01
  Q 230.08 270.47 236.13 275.62
  Q 241.00 279.77 247.13 277.31
  Q 247.83 277.03 247.21 276.59
  C 243.14 273.66 238.59 271.22 235.02 267.96
  Q 230.95 264.25 226.76 259.94
  Q 225.39 258.53 225.85 260.44
  C 225.98 260.98 226.87 262.26 227.17 263.01"
/>
<path stroke="#651b0c" vector-effect="non-scaling-stroke" d="
  M 263.24 301.54
  L 255.15 320.41
  Q 254.52 321.89 256.12 322.03
  L 259.12 322.28
  Q 261.13 322.46 261.99 320.63
  L 268.93 305.96"
/>
<path stroke="#743b2e" vector-effect="non-scaling-stroke" d="
  M 268.93 305.96
  L 277.93 287.41
  A 0.76 0.75 -65.5 0 0 277.55 286.38
  L 269.09 282.83
  Q 268.66 282.65 268.60 283.12
  C 267.85 289.96 265.20 295.38 263.24 301.54"
/>
<path stroke="#d9563a" vector-effect="non-scaling-stroke" d="
  M 268.93 305.96
  L 263.24 301.54"
/>
<path stroke="#f38166" vector-effect="non-scaling-stroke" d="
  M 121.77 179.02
  C 123.83 179.70 125.40 179.96 127.44 181.06
  Q 129.23 182.02 131.21 182.65
  Q 131.70 182.80 131.64 182.29
  L 130.88 175.57
  A 2.20 2.19 -81.8 0 0 129.57 173.81
  C 121.38 170.32 114.92 167.09 105.73 166.74
  A 0.90 0.90 0.0 0 0 104.84 167.92
  Q 106.43 172.87 108.57 177.46
  Q 109.25 178.92 111.00 178.55
  C 114.03 177.91 118.48 177.94 121.77 179.02"
/>
<path stroke="#ffe6a4" vector-effect="non-scaling-stroke" d="
  M 439.2940 143.3466
  A 2.82 2.64 109.6 0 0 442.7270 141.5756
  A 2.82 2.64 109.6 0 0 441.1860 138.0334
  A 2.82 2.64 109.6 0 0 437.7530 139.8044
  A 2.82 2.64 109.6 0 0 439.2940 143.3466"
/>
<path stroke="#ffe6a4" vector-effect="non-scaling-stroke" d="
  M 423.92 162.31
  A 2.48 2.48 0.0 0 0 421.44 159.83
  A 2.48 2.48 0.0 0 0 418.96 162.31
  A 2.48 2.48 0.0 0 0 421.44 164.79
  A 2.48 2.48 0.0 0 0 423.92 162.31"
/>
<path stroke="#ffe6a4" vector-effect="non-scaling-stroke" d="
  M 395.3191 193.7214
  A 3.50 3.50 0.0 0 0 395.2068 188.7729
  L 393.8621 187.4879
  A 3.50 3.50 0.0 0 0 388.9136 187.6002
  L 388.3609 188.1786
  A 3.50 3.50 0.0 0 0 388.4732 193.1271
  L 389.8179 194.4121
  A 3.50 3.50 0.0 0 0 394.7664 194.2998
  L 395.3191 193.7214"
/>
<path stroke="#ffe6a4" vector-effect="non-scaling-stroke" d="
  M 422.8844 195.5288
  A 3.64 3.32 94.5 0 0 426.4798 192.1605
  A 3.64 3.32 94.5 0 0 423.4556 188.2712
  A 3.64 3.32 94.5 0 0 419.8602 191.6395
  A 3.64 3.32 94.5 0 0 422.8844 195.5288"
/>
<path stroke="#ffe6a4" vector-effect="non-scaling-stroke" d="
  M 403.05 215.48
  A 2.68 2.68 0.0 0 0 400.37 212.80
  A 2.68 2.68 0.0 0 0 397.69 215.48
  A 2.68 2.68 0.0 0 0 400.37 218.16
  A 2.68 2.68 0.0 0 0 403.05 215.48"
/>
<path stroke="#ffe6a4" vector-effect="non-scaling-stroke" d="
  M 364.05 220.49
  A 2.68 2.68 0.0 0 0 361.37 217.81
  A 2.68 2.68 0.0 0 0 358.69 220.49
  A 2.68 2.68 0.0 0 0 361.37 223.17
  A 2.68 2.68 0.0 0 0 364.05 220.49"
/>
<path stroke="#ffe6a4" vector-effect="non-scaling-stroke" d="
  M 421.9174 235.8102
  A 5.41 4.72 109.8 0 0 428.1910 232.3188
  A 5.41 4.72 109.8 0 0 425.5826 225.6298
  A 5.41 4.72 109.8 0 0 419.3090 229.1212
  A 5.41 4.72 109.8 0 0 421.9174 235.8102"
/>
<path stroke="#ffe6a4" vector-effect="non-scaling-stroke" d="
  M 355.2539 250.9003
  A 4.57 4.23 107.0 0 0 360.6352 247.7667
  A 4.57 4.23 107.0 0 0 357.9261 242.1597
  A 4.57 4.23 107.0 0 0 352.5448 245.2933
  A 4.57 4.23 107.0 0 0 355.2539 250.9003"
/>
<path stroke="#ffe6a4" vector-effect="non-scaling-stroke" d="
  M 404.0827 248.9914
  A 2.72 2.53 96.7 0 0 406.9127 246.5852
  A 2.72 2.53 96.7 0 0 404.7173 243.5886
  A 2.72 2.53 96.7 0 0 401.8873 245.9948
  A 2.72 2.53 96.7 0 0 404.0827 248.9914"
/>
<path stroke="#ffe6a4" vector-effect="non-scaling-stroke" d="
  M 440.47 256.20
  A 2.71 2.71 0.0 0 0 437.76 253.49
  A 2.71 2.71 0.0 0 0 435.05 256.20
  A 2.71 2.71 0.0 0 0 437.76 258.91
  A 2.71 2.71 0.0 0 0 440.47 256.20"
/>
<path stroke="#ffe6a4" vector-effect="non-scaling-stroke" d="
  M 386.72 257.03
  A 2.66 2.66 0.0 0 0 384.06 254.37
  A 2.66 2.66 0.0 0 0 381.40 257.03
  A 2.66 2.66 0.0 0 0 384.06 259.69
  A 2.66 2.66 0.0 0 0 386.72 257.03"
/>
</g>
<path fill="#000000" d="
  M 461.15 30.39
  Q 461.43 29.67 462.52 29.49
  C 469.32 28.38 472.67 31.06 477.49 35.14
  Q 477.87 35.47 478.37 35.43
  Q 491.38 34.57 496.35 45.71
  C 497.33 47.90 497.57 50.62 498.00 53.09
  Q 498.08 53.60 498.54 53.83
  Q 499.94 54.55 501.36 55.05
  C 509.02 57.73 508.29 62.97 508.51 69.99
  C 508.65 74.20 511.54 77.87 511.23 81.99
  C 510.79 87.95 506.78 90.77 502.89 94.63
  C 501.44 96.07 501.19 97.91 500.46 99.80
  A 1.38 1.38 0.0 0 0 501.79 101.68
  C 508.75 101.47 515.99 102.42 522.41 105.18
  C 529.65 108.30 534.50 112.39 538.93 119.33
  Q 543.70 126.80 545.48 139.25
  Q 547.11 150.71 548.37 177.74
  C 549.54 203.16 554.39 228.48 538.82 250.06
  C 531.58 260.10 519.24 265.86 507.23 267.44
  Q 503.25 267.96 498.94 269.21
  A 1.94 1.94 0.0 0 0 497.55 270.99
  C 497.40 274.52 497.97 277.31 499.53 280.80
  C 505.66 294.60 510.94 313.36 495.66 323.93
  Q 485.67 330.84 468.98 335.74
  Q 442.20 343.60 414.24 343.90
  Q 413.73 343.90 413.23 343.76
  Q 412.76 343.62 412.28 343.74
  C 407.55 344.91 402.24 343.82 398.73 343.80
  Q 372.50 343.64 347.15 337.23
  C 336.80 334.61 326.54 330.81 318.05 325.48
  C 312.38 321.93 312.49 309.56 313.56 304.04
  C 314.00 301.75 313.32 299.17 314.91 296.80
  Q 315.17 296.40 315.13 295.92
  C 314.96 293.72 316.01 292.18 316.23 290.19
  C 316.42 288.47 316.78 286.71 317.83 285.30
  C 318.42 284.50 317.88 283.76 318.26 283.03
  Q 318.46 282.65 318.82 282.45
  Q 319.25 282.22 319.27 281.73
  L 320.07 261.26
  Q 320.09 260.83 319.82 260.48
  Q 319.26 259.74 319.66 259.05
  Q 319.88 258.67 319.88 258.22
  L 319.88 253.25
  Q 319.88 252.72 319.67 252.24
  Q 319.43 251.69 319.63 251.18
  Q 319.93 250.40 319.95 250.28
  Q 320.47 247.20 319.66 244.21
  Q 319.53 243.73 319.66 243.26
  Q 320.65 239.81 319.70 236.36
  C 319.43 235.36 319.65 235.00 319.99 234.12
  Q 320.15 233.69 320.13 233.23
  Q 319.84 227.97 320.02 222.72
  C 320.06 221.60 319.41 219.91 319.82 218.56
  Q 319.96 218.08 319.91 217.58
  Q 319.76 215.88 320.01 214.25
  Q 320.09 213.74 319.95 213.24
  Q 319.59 212.04 319.74 210.81
  Q 320.01 208.51 320.00 208.19
  Q 319.90 198.29 319.86 188.44
  Q 319.85 187.96 319.67 187.53
  Q 319.37 186.84 319.78 186.25
  Q 319.85 186.15 319.73 186.11
  Q 319.68 186.10 319.64 186.07
  Q 319.57 186.02 319.56 185.89
  C 319.33 180.67 319.90 175.40 319.50 170.23
  C 319.30 167.59 319.63 163.46 318.04 161.22
  Q 311.42 151.89 310.90 140.37
  Q 310.87 139.84 310.38 139.66
  C 305.81 138.04 303.98 137.10 301.36 132.76
  Q 298.16 127.44 293.13 122.38
  Q 288.85 118.07 288.53 111.78
  C 288.35 108.17 290.18 105.50 289.16 101.77
  C 287.77 96.70 286.07 92.54 288.78 87.75
  C 290.35 84.98 292.68 81.80 292.49 78.58
  C 292.36 76.49 291.48 74.36 291.47 72.44
  C 291.44 63.10 297.33 56.55 304.47 51.45
  A 2.08 2.07 -20.4 0 0 305.33 49.59
  C 304.37 38.22 309.23 28.73 320.21 25.31
  Q 320.33 25.27 321.71 25.15
  Q 322.52 25.07 322.87 24.35
  Q 323.07 23.93 323.54 23.91
  L 331.46 23.61
  Q 331.92 23.59 332.23 23.25
  Q 335.41 19.79 336.55 18.84
  C 340.06 15.93 346.72 14.43 350.59 17.83
  Q 351.52 18.65 352.64 19.10
  C 354.41 19.80 355.13 20.67 356.16 22.03
  A 0.95 0.95 0.0 0 0 357.66 22.04
  Q 361.24 17.50 366.89 16.78
  C 368.19 16.62 369.93 16.10 371.51 16.60
  Q 373.72 17.31 374.43 17.37
  Q 375.67 17.47 376.95 17.63
  Q 377.44 17.69 377.80 17.35
  Q 382.65 12.77 389.13 11.09
  Q 391.97 10.36 394.85 11.08
  Q 395.18 11.16 395.34 11.36
  Q 395.44 11.48 395.52 11.63
  Q 395.66 11.90 395.96 11.91
  C 398.50 12.03 399.65 13.45 401.84 13.68
  Q 402.36 13.74 402.76 13.41
  Q 409.88 7.52 416.00 4.99
  C 427.89 0.07 440.65 3.25 450.51 10.96
  Q 459.09 17.67 458.46 28.67
  Q 458.42 29.25 458.97 29.44
  Q 459.91 29.77 460.65 30.49
  Q 460.98 30.82 461.15 30.39
  Z
  M 361.83 24.57
  C 358.65 25.69 354.63 25.89 352.50 22.98
  A 1.48 1.44 -8.0 0 0 351.79 22.46
  L 346.27 20.59
  Q 345.70 20.39 345.38 19.88
  Q 345.14 19.48 344.75 19.24
  A 0.67 0.66 27.1 0 0 343.81 19.54
  Q 343.62 19.96 343.29 20.29
  Q 342.90 20.68 342.36 20.77
  L 339.52 21.21
  A 1.52 1.49 16.7 0 0 338.66 21.66
  C 336.26 24.17 334.55 26.37 330.57 26.66
  Q 330.07 26.70 329.68 27.02
  C 328.79 27.75 328.13 28.02 326.88 28.00
  Q 323.22 27.96 319.76 29.28
  Q 319.24 29.48 318.97 29.96
  L 318.39 30.99
  Q 318.13 31.45 317.62 31.58
  L 314.28 32.41
  A 1.21 1.20 -2.5 0 0 313.37 33.40
  Q 312.92 36.38 310.80 38.79
  C 307.44 42.59 311.07 53.74 307.31 55.56
  C 298.87 59.62 294.64 66.78 296.48 76.21
  C 297.09 79.35 297.22 81.09 295.63 84.13
  C 293.66 87.90 290.00 93.33 292.05 96.67
  Q 294.91 101.32 294.04 105.75
  C 293.47 108.63 292.32 113.16 293.26 115.92
  Q 293.75 117.35 295.67 118.75
  C 299.86 121.79 301.12 124.55 303.37 128.22
  C 303.94 129.16 305.02 129.65 305.60 130.70
  C 306.09 131.57 305.96 132.84 306.45 133.90
  Q 306.66 134.35 307.14 134.49
  C 310.05 135.33 312.35 134.89 314.21 137.81
  C 315.81 140.33 314.95 145.72 315.51 148.00
  Q 316.37 151.50 318.02 152.47
  C 320.81 154.09 320.62 155.62 321.43 158.05
  Q 321.59 158.53 321.98 158.84
  Q 323.95 160.37 323.95 163.00
  Q 324.00 222.00 323.94 281.00
  C 323.94 283.65 321.42 284.04 321.13 286.80
  C 320.97 288.29 320.99 289.58 320.34 291.01
  Q 317.68 296.82 317.98 303.23
  C 318.12 306.50 316.04 308.64 316.64 311.90
  C 317.30 315.49 318.98 321.74 322.24 323.55
  Q 327.68 326.54 337.08 330.18
  C 339.25 331.02 341.33 331.14 343.59 332.15
  C 346.98 333.65 350.72 333.89 353.96 334.90
  Q 359.92 336.77 366.19 337.17
  Q 367.69 337.26 369.19 337.88
  C 372.11 339.10 375.52 338.72 378.62 339.18
  C 385.84 340.24 393.26 340.01 400.55 339.99
  Q 402.01 339.98 404.30 340.78
  C 408.48 342.23 410.49 339.99 414.27 339.99
  C 420.80 339.99 426.68 340.36 431.60 339.36
  C 434.94 338.68 438.20 338.98 441.56 338.13
  Q 445.42 337.16 447.55 336.94
  C 453.04 336.38 456.88 335.11 461.40 333.99
  Q 464.52 333.23 466.49 332.48
  C 469.76 331.25 473.26 330.47 476.28 329.16
  C 485.17 325.31 498.47 320.15 501.08 309.98
  C 503.14 301.98 500.08 291.83 496.38 284.85
  C 493.73 279.85 493.79 277.44 493.93 272.00
  C 493.98 269.76 493.57 268.65 495.57 267.18
  Q 498.70 264.87 501.24 264.61
  Q 510.58 263.63 519.27 260.16
  C 521.77 259.17 523.85 257.38 526.12 255.85
  C 528.19 254.45 533.01 252.89 534.42 249.66
  Q 535.36 247.51 536.18 246.15
  C 540.25 239.42 544.09 230.97 545.08 223.16
  Q 546.76 209.89 545.69 196.57
  Q 545.10 189.20 545.02 183.38
  C 544.92 176.16 544.30 169.58 543.91 161.83
  C 543.64 156.41 542.36 150.94 542.02 145.91
  C 541.41 137.05 539.86 129.65 535.42 121.34
  C 534.41 119.44 531.19 118.90 531.01 115.43
  Q 530.99 114.94 530.58 114.68
  Q 527.06 112.36 523.30 110.46
  C 521.17 109.39 518.79 107.16 515.50 106.92
  C 513.00 106.74 511.49 105.28 508.74 105.24
  Q 504.25 105.16 499.76 105.11
  C 494.55 105.06 497.72 95.98 498.07 93.47
  A 2.67 2.64 -18.1 0 1 498.85 91.95
  C 502.39 88.57 509.73 84.42 506.59 78.48
  Q 504.11 73.78 504.38 69.46
  Q 504.65 65.29 504.47 64.59
  C 502.75 57.59 497.25 60.57 494.57 55.88
  C 493.34 53.70 494.26 50.89 492.96 48.36
  C 491.59 45.65 487.59 40.28 484.16 40.08
  Q 482.62 39.99 477.01 39.73
  Q 476.23 39.70 474.95 38.00
  Q 472.23 34.37 466.94 33.79
  C 466.33 33.72 465.93 33.39 465.45 33.07
  Q 465.05 32.81 464.65 33.06
  Q 462.33 34.54 459.67 34.05
  C 457.60 33.67 456.39 31.61 454.72 30.33
  A 1.84 1.82 19.3 0 1 454.00 28.86
  C 454.05 25.37 454.73 20.55 451.46 18.16
  C 449.64 16.84 449.03 15.81 447.69 14.32
  C 446.65 13.16 445.37 12.94 444.02 12.22
  A 1.60 1.57 2.1 0 1 443.34 11.50
  C 441.98 8.56 439.07 9.29 436.52 7.93
  C 429.29 4.07 419.66 6.26 413.77 11.08
  C 412.44 12.17 411.41 12.26 410.21 13.81
  C 409.25 15.05 408.73 15.49 407.06 15.97
  C 403.61 16.94 401.98 19.73 398.21 16.60
  C 395.65 14.48 390.81 14.85 387.55 15.20
  A 1.53 1.53 0.0 0 0 386.31 16.10
  L 385.47 18.01
  Q 385.26 18.48 384.78 18.70
  Q 383.20 19.41 381.91 18.42
  Q 381.37 18.00 381.17 18.66
  Q 380.37 21.28 377.50 21.17
  Q 371.48 20.92 365.03 21.03
  A 1.71 1.69 12.8 0 0 363.55 21.95
  L 362.50 23.98
  A 1.22 1.20 -85.9 0 1 361.83 24.57
  Z"
/>
<path fill="#ffffff" d="
  M 362.50 23.98
  L 363.55 21.95
  A 1.71 1.69 12.8 0 1 365.03 21.03
  Q 371.48 20.92 377.50 21.17
  Q 380.37 21.28 381.17 18.66
  Q 381.37 18.00 381.91 18.42
  Q 383.20 19.41 384.78 18.70
  Q 385.26 18.48 385.47 18.01
  L 386.31 16.10
  A 1.53 1.53 0.0 0 1 387.55 15.20
  C 390.81 14.85 395.65 14.48 398.21 16.60
  C 401.98 19.73 403.61 16.94 407.06 15.97
  C 408.73 15.49 409.25 15.05 410.21 13.81
  C 411.41 12.26 412.44 12.17 413.77 11.08
  C 419.66 6.26 429.29 4.07 436.52 7.93
  C 439.07 9.29 441.98 8.56 443.34 11.50
  A 1.60 1.57 2.1 0 0 444.02 12.22
  C 445.37 12.94 446.65 13.16 447.69 14.32
  C 449.03 15.81 449.64 16.84 451.46 18.16
  C 454.73 20.55 454.05 25.37 454.00 28.86
  A 1.84 1.82 19.3 0 0 454.72 30.33
  C 456.39 31.61 457.60 33.67 459.67 34.05
  Q 462.33 34.54 464.65 33.06
  Q 465.05 32.81 465.45 33.07
  C 465.93 33.39 466.33 33.72 466.94 33.79
  Q 472.23 34.37 474.95 38.00
  Q 476.23 39.70 477.01 39.73
  Q 482.62 39.99 484.16 40.08
  C 487.59 40.28 491.59 45.65 492.96 48.36
  C 494.26 50.89 493.34 53.70 494.57 55.88
  C 497.25 60.57 502.75 57.59 504.47 64.59
  Q 504.65 65.29 504.38 69.46
  Q 504.11 73.78 506.59 78.48
  C 509.73 84.42 502.39 88.57 498.85 91.95
  A 2.67 2.64 -18.1 0 0 498.07 93.47
  C 497.72 95.98 494.55 105.06 499.76 105.11
  Q 504.25 105.16 508.74 105.24
  C 511.49 105.28 513.00 106.74 515.50 106.92
  C 518.79 107.16 521.17 109.39 523.30 110.46
  Q 527.06 112.36 530.58 114.68
  Q 530.99 114.94 531.01 115.43
  C 531.19 118.90 534.41 119.44 535.42 121.34
  C 539.86 129.65 541.41 137.05 542.02 145.91
  C 542.36 150.94 543.64 156.41 543.91 161.83
  C 544.30 169.58 544.92 176.16 545.02 183.38
  Q 545.10 189.20 545.69 196.57
  Q 546.76 209.89 545.08 223.16
  C 544.09 230.97 540.25 239.42 536.18 246.15
  Q 535.36 247.51 534.42 249.66
  C 533.01 252.89 528.19 254.45 526.12 255.85
  C 523.85 257.38 521.77 259.17 519.27 260.16
  Q 510.58 263.63 501.24 264.61
  Q 498.70 264.87 495.57 267.18
  C 493.57 268.65 493.98 269.76 493.93 272.00
  C 493.79 277.44 493.73 279.85 496.38 284.85
  C 500.08 291.83 503.14 301.98 501.08 309.98
  C 498.47 320.15 485.17 325.31 476.28 329.16
  C 473.26 330.47 469.76 331.25 466.49 332.48
  Q 464.52 333.23 461.40 333.99
  C 456.88 335.11 453.04 336.38 447.55 336.94
  Q 445.42 337.16 441.56 338.13
  C 438.20 338.98 434.94 338.68 431.60 339.36
  C 426.68 340.36 420.80 339.99 414.27 339.99
  C 410.49 339.99 408.48 342.23 404.30 340.78
  Q 402.01 339.98 400.55 339.99
  C 393.26 340.01 385.84 340.24 378.62 339.18
  C 375.52 338.72 372.11 339.10 369.19 337.88
  Q 367.69 337.26 366.19 337.17
  Q 359.92 336.77 353.96 334.90
  C 350.72 333.89 346.98 333.65 343.59 332.15
  C 341.33 331.14 339.25 331.02 337.08 330.18
  Q 327.68 326.54 322.24 323.55
  C 318.98 321.74 317.30 315.49 316.64 311.90
  C 316.04 308.64 318.12 306.50 317.98 303.23
  Q 317.68 296.82 320.34 291.01
  C 320.99 289.58 320.97 288.29 321.13 286.80
  C 321.42 284.04 323.94 283.65 323.94 281.00
  Q 324.00 222.00 323.95 163.00
  Q 323.95 160.37 321.98 158.84
  Q 321.59 158.53 321.43 158.05
  C 320.62 155.62 320.81 154.09 318.02 152.47
  Q 316.37 151.50 315.51 148.00
  C 314.95 145.72 315.81 140.33 314.21 137.81
  C 312.35 134.89 310.05 135.33 307.14 134.49
  Q 306.66 134.35 306.45 133.90
  C 305.96 132.84 306.09 131.57 305.60 130.70
  C 305.02 129.65 303.94 129.16 303.37 128.22
  C 301.12 124.55 299.86 121.79 295.67 118.75
  Q 293.75 117.35 293.26 115.92
  C 292.32 113.16 293.47 108.63 294.04 105.75
  Q 294.91 101.32 292.05 96.67
  C 290.00 93.33 293.66 87.90 295.63 84.13
  C 297.22 81.09 297.09 79.35 296.48 76.21
  C 294.64 66.78 298.87 59.62 307.31 55.56
  C 311.07 53.74 307.44 42.59 310.80 38.79
  Q 312.92 36.38 313.37 33.40
  A 1.21 1.20 -2.5 0 1 314.28 32.41
  L 317.62 31.58
  Q 318.13 31.45 318.39 30.99
  L 318.97 29.96
  Q 319.24 29.48 319.76 29.28
  Q 323.22 27.96 326.88 28.00
  C 328.13 28.02 328.79 27.75 329.68 27.02
  Q 330.07 26.70 330.57 26.66
  C 334.55 26.37 336.26 24.17 338.66 21.66
  A 1.52 1.49 16.7 0 1 339.52 21.21
  L 342.36 20.77
  Q 342.90 20.68 343.29 20.29
  Q 343.62 19.96 343.81 19.54
  A 0.67 0.66 27.1 0 1 344.75 19.24
  Q 345.14 19.48 345.38 19.88
  Q 345.70 20.39 346.27 20.59
  L 351.79 22.46
  A 1.48 1.44 -8.0 0 1 352.50 22.98
  C 354.63 25.89 358.65 25.69 361.83 24.57
  A 1.22 1.20 -85.9 0 0 362.50 23.98
  Z
  M 336.99 270.11
  Q 337.26 271.12 337.80 272.05
  Q 342.25 279.75 350.71 282.42
  C 385.54 293.40 422.44 294.09 457.58 283.13
  C 468.06 279.87 475.23 275.98 478.57 265.78
  Q 479.99 261.44 479.84 251.56
  Q 479.32 217.16 478.81 182.75
  C 478.51 162.69 477.28 142.61 476.30 122.53
  A 1.34 1.33 11.1 0 0 475.53 121.39
  L 467.88 117.82
  A 0.86 0.85 12.6 0 0 466.66 118.59
  Q 466.79 166.36 466.74 214.49
  Q 466.74 218.71 466.91 224.99
  C 467.08 231.12 469.04 243.15 462.38 246.50
  C 458.58 248.41 455.00 246.20 454.26 242.23
  Q 452.93 235.07 452.89 225.75
  Q 452.72 177.68 452.79 129.81
  A 1.36 1.36 0.0 0 0 451.82 128.51
  L 445.09 126.47
  Q 444.17 126.19 443.49 126.87
  C 437.69 132.67 429.98 131.85 423.35 128.29
  A 0.86 0.85 27.9 0 0 422.19 128.64
  Q 413.82 144.22 395.79 142.33
  A 0.53 0.52 85.1 0 0 395.23 143.00
  C 399.20 156.28 391.56 165.78 382.16 173.74
  C 381.39 174.39 380.54 175.64 380.40 176.47
  C 377.56 192.67 368.37 204.08 351.01 204.46
  Q 341.13 204.67 335.07 197.85
  Q 333.07 195.61 332.89 198.61
  C 332.73 201.29 333.37 204.47 333.41 207.13
  Q 333.87 234.62 334.13 262.12
  C 334.16 264.60 334.94 266.46 335.85 268.68
  A 0.62 0.57 88.0 0 0 336.18 269.01
  Q 336.37 269.09 336.51 269.25
  Q 336.89 269.73 336.99 270.11
  Z
  M 509.79 238.30
  C 514.39 235.68 518.87 230.14 520.89 225.09
  C 525.54 213.41 524.07 199.61 524.01 187.42
  Q 524.00 186.01 523.76 184.09
  C 522.62 174.81 523.90 165.41 522.20 156.30
  C 521.25 151.20 520.81 145.11 518.65 140.78
  C 514.16 131.78 506.38 127.91 498.53 136.29
  Q 494.37 140.73 489.95 144.57
  A 2.87 2.84 69.8 0 0 488.97 146.73
  Q 488.97 158.61 489.00 171.00
  C 489.01 174.71 490.26 178.42 490.42 181.68
  Q 490.95 192.30 490.98 202.93
  C 490.99 206.61 491.93 210.12 491.94 213.86
  Q 491.97 224.74 492.01 235.63
  Q 492.02 238.20 493.03 239.63
  C 496.82 245.00 505.42 240.79 509.79 238.30
  Z"
/>
<path fill="#000000" d="
  M 283.14 251.61
  Q 288.30 250.33 293.33 254.35
  C 296.03 256.50 294.09 261.60 292.46 264.49
  Q 284.22 279.13 276.59 294.09
  C 272.92 301.29 269.47 310.49 265.39 318.50
  C 262.99 323.21 260.37 325.75 254.98 323.65
  A 1.03 1.03 0.0 0 0 253.62 324.30
  L 250.99 332.79
  A 2.28 2.27 -78.6 0 1 248.60 334.38
  C 245.02 334.03 241.20 333.90 237.89 332.48
  C 230.02 329.11 224.08 323.89 214.78 322.55
  Q 203.19 320.88 192.01 324.27
  C 177.12 328.78 168.56 315.06 160.70 304.80
  C 155.69 298.27 149.91 296.10 141.27 295.09
  C 128.17 293.56 116.55 294.38 107.63 282.62
  C 102.20 275.45 98.76 268.02 95.07 260.19
  C 88.80 246.85 75.46 239.83 61.00 240.17
  Q 53.13 240.35 45.25 240.46
  C 32.04 240.63 17.40 231.71 11.28 219.69
  Q 6.90 211.07 5.25 205.00
  C 3.73 199.36 2.47 193.73 0.32 188.27
  A 1.50 1.50 0.0 0 1 0.70 186.61
  Q 11.92 176.26 19.34 162.85
  Q 20.60 160.58 25.18 155.43
  C 29.77 150.28 36.11 144.30 43.08 144.54
  C 52.59 144.88 55.78 158.88 58.14 165.90
  C 61.97 177.30 72.24 186.02 84.65 185.39
  Q 85.80 185.33 84.92 184.59
  Q 75.00 176.22 73.76 163.70
  C 73.11 157.03 75.23 147.72 75.50 141.01
  C 75.98 128.75 73.06 116.01 61.13 111.35
  C 49.03 106.62 40.49 100.37 35.15 88.40
  Q 31.74 80.75 32.88 72.84
  A 2.52 2.50 89.2 0 1 34.93 70.72
  Q 46.61 68.72 57.34 62.89
  Q 70.06 56.00 82.65 48.88
  C 86.78 46.55 91.97 43.17 96.72 40.42
  C 110.89 32.20 122.24 39.98 126.02 54.55
  Q 128.55 64.25 131.75 73.76
  Q 134.96 83.28 141.81 87.67
  C 149.44 92.56 155.97 97.61 160.69 105.53
  Q 161.96 107.67 161.86 105.18
  C 161.84 104.72 161.63 103.90 161.66 103.26
  C 162.61 84.88 155.16 64.85 145.80 49.23
  A 3.00 2.98 -43.7 0 1 145.88 46.05
  C 148.92 41.45 161.63 38.09 166.81 37.09
  Q 179.69 34.60 192.50 31.73
  C 197.32 30.65 202.28 29.28 205.92 33.84
  C 217.88 48.82 223.07 68.45 222.22 87.25
  Q 221.95 93.40 220.80 103.75
  C 219.67 113.90 224.29 126.28 234.32 130.42
  C 239.49 132.55 245.69 134.66 249.87 137.49
  C 261.88 145.60 263.87 158.75 262.14 172.49
  C 260.29 187.18 258.38 205.11 269.00 217.23
  C 276.92 226.28 286.33 222.02 296.26 223.93
  A 2.10 2.10 0.0 0 1 297.96 225.86
  C 298.59 235.23 288.99 244.58 282.56 250.54
  Q 280.77 252.20 283.14 251.61
  Z
  M 209.80 92.45
  C 210.07 107.25 210.93 121.06 217.29 134.26
  C 220.16 140.28 224.66 145.17 230.76 147.39
  C 233.81 148.50 236.99 149.52 239.34 151.40
  C 248.75 158.96 245.55 171.44 243.74 181.75
  C 242.55 188.55 244.96 193.37 249.49 199.06
  C 254.39 205.22 257.73 210.31 260.76 217.32
  C 263.41 223.43 265.92 227.90 271.53 230.20
  C 277.85 232.78 284.50 235.96 291.07 237.74
  Q 291.60 237.89 291.89 237.42
  L 294.85 232.75
  L 296.32 227.46
  Q 296.80 225.69 294.97 225.58
  C 282.78 224.85 273.24 227.22 264.92 215.54
  L 260.05 204.41
  Q 258.01 191.53 258.73 185.75
  C 260.68 170.13 264.81 151.42 250.18 140.07
  C 241.96 133.70 230.95 133.67 224.33 124.71
  C 216.43 114.04 219.15 101.22 220.21 89.25
  Q 221.18 78.30 218.31 65.00
  Q 214.27 46.26 202.77 33.64
  Q 201.50 32.42 199.26 32.56
  Q 197.27 32.68 195.55 32.97
  Q 194.91 33.08 195.26 33.62
  C 206.40 51.25 209.03 71.86 209.80 92.45
  Z
  M 207.21 83.50
  C 206.30 65.67 202.66 49.34 193.25 33.89
  A 0.67 0.66 67.9 0 0 192.53 33.58
  L 183.49 35.68
  A 1.44 1.43 79.9 0 0 182.39 37.27
  C 183.56 46.22 186.63 52.89 190.15 61.07
  C 192.11 65.61 191.40 70.00 191.33 74.50
  C 191.18 83.42 198.51 91.83 200.50 100.72
  C 202.41 109.20 200.37 118.35 201.07 126.69
  Q 201.73 134.42 204.42 141.64
  C 207.32 149.41 213.17 156.30 218.82 162.67
  Q 227.22 172.15 232.65 183.51
  C 237.93 194.57 238.43 209.40 249.68 216.62
  Q 255.98 220.66 259.03 222.95
  C 261.25 224.61 262.93 227.11 264.68 229.34
  C 266.93 232.20 269.63 236.55 272.66 239.80
  C 275.62 242.98 279.72 244.58 283.53 246.73
  Q 283.77 246.86 283.95 246.66
  L 290.15 239.91
  A 0.19 0.18 32.2 0 0 290.08 239.61
  Q 281.81 236.25 273.52 232.95
  Q 268.77 231.06 266.45 229.25
  C 261.55 225.45 259.31 219.02 256.85 213.67
  C 251.56 202.16 239.71 196.04 241.95 181.25
  C 243.41 171.59 247.33 158.94 237.12 151.95
  C 235.36 150.75 232.99 150.08 230.89 149.34
  C 207.26 140.95 208.21 103.03 207.21 83.50
  Z
  M 250.23 240.42
  Q 259.63 253.70 276.80 252.90
  C 278.85 252.80 280.74 250.30 282.19 248.43
  Q 282.50 248.02 282.03 247.83
  Q 276.22 245.46 271.67 241.69
  Q 266.68 235.54 262.35 229.38
  C 258.83 224.38 254.60 221.84 249.56 218.66
  C 236.01 210.11 236.19 194.61 229.70 181.66
  C 224.52 171.35 216.42 162.49 209.09 153.65
  Q 205.85 149.74 202.96 143.32
  Q 198.59 131.57 198.85 119.25
  Q 198.97 113.71 199.36 109.08
  Q 199.33 100.16 196.17 94.05
  Q 191.95 85.87 190.79 82.01
  C 189.25 76.83 189.42 73.31 189.56 67.20
  C 189.65 63.39 187.99 60.59 186.17 56.79
  C 183.16 50.55 181.44 44.02 180.48 37.10
  Q 180.35 36.11 179.37 36.32
  L 158.77 40.84
  A 0.56 0.55 55.2 0 0 158.59 41.85
  C 165.39 46.18 170.47 52.61 171.76 60.75
  C 173.44 71.38 174.41 79.52 178.31 87.19
  C 181.37 93.20 185.04 99.16 184.46 105.50
  C 183.44 116.72 181.19 130.06 182.44 140.50
  C 184.26 155.67 194.17 153.22 202.40 161.71
  C 210.34 169.90 209.35 181.51 212.97 189.27
  Q 215.60 194.91 217.75 200.66
  A 2.15 2.14 -88.7 0 0 218.89 201.86
  Q 226.68 205.20 231.90 212.34
  C 238.50 221.37 243.64 231.20 250.23 240.42
  Z
  M 111.63 57.12
  C 113.65 63.34 112.68 72.17 114.69 78.20
  Q 116.90 84.82 122.13 90.13
  C 132.75 100.89 141.22 113.16 149.97 125.61
  C 155.19 133.04 154.74 140.40 154.39 149.00
  Q 153.86 162.21 157.14 174.82
  C 160.00 185.79 162.81 192.63 170.47 200.28
  C 177.14 206.94 183.88 212.02 192.49 212.26
  Q 196.09 212.36 198.44 213.56
  C 203.72 216.26 207.87 219.81 214.26 220.48
  C 229.90 222.12 237.69 235.91 244.65 248.86
  C 246.98 253.21 249.12 255.73 253.28 257.70
  Q 259.38 260.59 265.69 263.05
  C 271.00 265.12 275.30 262.72 280.22 263.58
  Q 284.52 264.33 288.34 266.42
  A 0.75 0.75 0.0 0 0 289.35 266.14
  Q 291.25 262.95 292.43 259.24
  C 293.64 255.45 289.04 253.46 286.00 253.57
  C 281.76 253.72 277.17 254.83 273.48 254.70
  C 261.14 254.24 252.68 248.16 246.13 238.08
  Q 239.52 227.89 233.24 217.48
  C 226.18 205.76 216.36 201.66 202.92 199.36
  C 201.97 199.20 201.01 199.52 200.02 198.68
  A 1.88 1.87 -19.6 0 0 199.15 198.27
  Q 188.35 196.32 181.55 192.21
  C 167.69 183.81 161.91 167.55 163.12 151.76
  Q 163.84 142.37 164.54 132.99
  C 165.21 124.12 164.92 117.67 161.36 110.59
  C 156.22 100.36 149.15 95.04 140.15 88.55
  C 129.73 81.05 127.61 67.16 124.30 55.33
  C 121.27 44.51 114.08 36.08 101.79 39.94
  A 0.34 0.33 -28.4 0 0 101.63 40.47
  C 105.90 45.71 109.29 49.94 111.63 57.12
  Z
  M 94.39 44.08
  L 77.97 53.63
  Q 77.37 53.98 77.46 54.66
  Q 77.60 55.79 78.00 57.27
  Q 84.18 80.11 99.45 97.71
  C 103.79 102.72 111.80 109.80 116.59 115.96
  C 124.89 126.63 126.32 139.71 128.75 152.86
  C 130.35 161.47 133.53 172.10 135.17 181.95
  C 135.56 184.29 136.95 186.37 137.16 189.02
  Q 137.20 189.53 137.49 189.95
  Q 141.63 195.93 143.53 202.95
  C 143.88 204.23 144.93 205.26 145.42 206.53
  C 151.12 221.41 161.14 231.03 175.55 237.84
  C 180.48 240.17 185.37 240.80 190.64 241.80
  C 191.85 242.03 192.77 242.73 193.83 243.32
  Q 194.27 243.56 194.76 243.48
  Q 207.84 241.38 217.63 249.39
  Q 226.00 256.24 236.30 266.95
  C 238.80 269.54 244.87 272.76 248.66 275.43
  Q 249.46 275.99 250.33 275.56
  L 263.30 269.07
  L 267.50 270.30
  C 270.26 272.88 269.51 276.92 269.06 280.25
  A 0.73 0.73 0.0 0 0 269.50 281.03
  L 278.38 284.73
  Q 279.01 285.00 279.33 284.39
  L 284.68 274.08
  L 287.85 268.86
  A 0.14 0.14 0.0 0 0 287.80 268.67
  Q 283.40 265.87 278.26 265.32
  C 274.05 264.88 270.71 267.01 266.00 265.19
  Q 260.98 263.24 254.22 260.00
  C 248.43 257.23 245.17 254.42 242.62 248.89
  Q 237.76 238.35 229.80 229.98
  Q 223.65 223.51 214.74 222.71
  C 208.88 222.18 204.85 219.62 199.96 216.76
  C 196.31 214.62 194.33 214.43 190.25 214.19
  C 181.00 213.66 169.89 203.08 164.44 196.29
  C 158.32 188.65 155.60 177.68 153.75 168.50
  C 152.00 159.78 152.45 148.85 152.71 141.25
  C 152.94 134.62 150.21 129.37 146.43 123.85
  Q 139.79 114.16 132.72 104.64
  C 128.41 99.31 123.64 94.52 119.08 89.42
  C 111.58 81.03 111.64 72.87 110.65 62.00
  C 109.96 54.30 105.37 47.73 99.89 41.46
  Q 99.56 41.07 99.12 41.33
  L 94.39 44.08
  Z
  M 154.97 42.34
  L 147.75 46.35
  A 1.19 1.18 -29.7 0 0 147.30 47.99
  Q 156.08 62.73 160.84 79.48
  C 163.39 88.43 163.90 95.04 163.56 104.50
  C 163.50 106.17 164.00 107.80 164.10 109.49
  C 164.34 113.75 166.50 117.77 166.72 121.77
  Q 167.38 133.77 165.39 148.77
  C 164.70 153.97 166.45 158.26 169.11 162.57
  C 174.33 171.01 182.20 169.36 189.86 173.83
  C 198.01 178.57 201.51 186.50 201.93 195.88
  A 1.29 1.29 0.0 0 0 202.89 197.06
  L 215.09 200.31
  A 0.35 0.35 0.0 0 0 215.50 199.82
  Q 212.61 193.77 210.56 187.66
  C 206.85 176.58 207.76 165.64 196.10 159.17
  C 188.98 155.22 182.25 152.45 180.90 143.26
  C 179.23 131.83 180.97 120.13 182.45 108.00
  C 183.65 98.26 177.95 91.45 174.69 83.37
  C 171.97 76.64 171.15 68.53 170.03 60.99
  C 168.81 52.79 163.09 46.33 156.00 42.34
  Q 155.48 42.05 154.97 42.34
  Z
  M 102.60 103.66
  C 89.34 90.58 80.15 74.09 75.62 55.72
  A 0.53 0.53 0.0 0 0 74.85 55.38
  L 55.62 65.99
  A 0.61 0.60 -22.1 0 0 55.33 66.66
  C 55.52 67.48 55.74 67.80 55.68 68.66
  C 55.07 77.76 59.94 86.90 66.68 92.57
  Q 72.75 97.67 79.21 102.34
  Q 98.29 116.13 99.03 140.00
  C 99.47 153.96 102.16 167.70 108.85 179.93
  Q 109.11 180.40 109.63 180.30
  Q 123.40 177.75 133.96 186.52
  Q 135.05 187.42 134.54 186.11
  C 132.46 180.62 131.94 174.15 130.55 169.09
  C 127.76 158.96 126.11 148.68 124.20 138.25
  C 121.39 122.95 113.68 114.60 102.60 103.66
  Z
  M 76.88 148.46
  C 76.36 151.56 75.74 155.61 75.64 158.40
  Q 75.11 173.12 86.16 183.36
  C 87.49 184.59 88.36 185.37 90.32 184.94
  Q 98.66 183.10 106.75 180.68
  A 0.20 0.20 0.0 0 0 106.87 180.40
  Q 99.63 166.25 98.01 150.47
  Q 97.46 145.08 97.04 139.67
  C 96.04 127.00 92.94 117.12 83.57 108.13
  C 76.47 101.32 66.84 96.61 61.00 89.36
  Q 53.47 80.00 53.65 67.19
  A 0.27 0.27 0.0 0 0 53.26 66.95
  Q 45.03 70.93 36.02 72.45
  A 1.60 1.60 0.0 0 0 34.70 73.87
  C 33.51 86.38 41.39 98.28 51.59 104.79
  C 57.20 108.36 64.04 109.70 68.90 113.96
  C 77.75 121.71 78.73 137.33 76.88 148.46
  Z
  M 32.43 151.16
  Q 29.62 153.00 27.45 155.84
  L 18.65 167.65
  Q 18.36 168.03 18.73 168.35
  C 26.04 174.64 28.14 181.38 31.89 190.16
  C 39.69 208.40 54.18 212.03 72.00 215.27
  Q 78.99 216.54 90.98 220.86
  Q 104.90 225.88 114.21 233.06
  Q 122.06 239.11 124.71 243.06
  Q 131.38 253.06 140.40 260.92
  C 142.46 262.72 143.92 265.34 146.00 267.00
  C 146.97 267.77 148.46 267.95 149.58 268.84
  C 155.66 273.66 160.20 276.05 167.00 276.73
  C 173.70 277.39 180.49 278.05 186.92 280.75
  C 193.11 283.34 199.62 288.68 205.32 291.67
  C 213.91 296.19 222.40 296.62 232.50 296.71
  Q 236.62 296.74 242.73 298.56
  Q 253.48 301.76 259.45 304.05
  Q 259.87 304.22 260.02 303.79
  L 262.46 296.83
  L 264.59 291.41
  A 0.35 0.35 0.0 0 0 264.15 290.95
  Q 258.30 293.04 252.00 292.95
  C 245.61 292.85 241.19 287.95 234.95 287.13
  Q 229.66 286.44 229.56 286.41
  C 212.51 281.80 207.37 260.27 190.08 257.47
  Q 184.76 256.77 179.54 257.94
  C 167.90 260.57 158.98 250.79 150.37 244.56
  Q 142.84 239.94 140.23 238.05
  C 133.20 232.98 128.31 224.81 123.51 217.47
  Q 117.61 208.44 107.87 203.79
  C 99.40 199.74 91.31 201.50 84.50 201.28
  Q 74.47 200.96 64.95 195.78
  C 52.02 188.76 46.88 178.02 41.97 164.75
  Q 39.60 158.34 32.87 152.80
  Q 32.45 152.46 32.36 152.08
  Q 32.26 151.61 32.43 151.16
  C 36.71 151.38 42.16 160.42 43.63 163.87
  C 45.66 168.62 47.36 174.53 49.99 178.86
  Q 61.33 197.56 83.87 199.26
  C 89.52 199.68 95.11 198.40 100.55 199.53
  C 111.20 201.72 119.34 207.54 125.26 216.57
  C 128.47 221.49 131.64 226.90 135.22 231.00
  Q 139.11 235.45 142.06 237.20
  Q 151.67 242.94 160.44 249.88
  C 163.48 252.28 167.60 255.16 170.59 255.92
  C 177.27 257.64 182.24 254.44 188.62 255.05
  C 207.27 256.82 213.02 278.09 226.96 283.68
  C 230.33 285.04 234.92 285.20 238.92 286.27
  Q 240.55 286.71 245.57 289.44
  C 250.85 292.31 259.56 290.67 265.09 288.75
  Q 265.61 288.57 265.73 288.04
  Q 266.72 283.56 267.22 275.75
  C 267.63 269.37 261.65 271.54 258.69 273.17
  Q 253.12 276.24 247.38 279.02
  C 238.84 283.15 230.67 274.49 227.37 267.71
  C 225.36 263.58 223.28 258.67 220.71 255.38
  C 214.16 246.96 202.10 242.60 191.74 246.46
  C 187.06 248.22 181.50 252.49 175.50 251.44
  C 160.66 248.85 151.85 236.92 147.51 223.01
  Q 143.94 211.55 140.19 200.17
  Q 134.94 184.23 119.12 182.12
  C 101.28 179.73 84.48 195.55 67.28 181.98
  C 61.21 177.20 58.18 172.02 55.46 164.34
  C 53.28 158.16 50.00 144.31 40.41 146.91
  Q 35.85 148.15 32.43 151.16
  Z
  M 188.21 174.97
  C 180.27 170.74 172.15 172.33 167.26 163.01
  Q 166.22 161.04 165.24 159.68
  Q 164.64 158.85 164.77 159.86
  C 166.46 172.84 171.71 183.82 183.09 190.66
  C 187.86 193.53 194.13 195.23 199.82 196.56
  A 0.35 0.35 0.0 0 0 200.25 196.16
  C 198.67 186.69 197.12 179.70 188.21 174.97
  Z
  M 14.21 186.34
  C 18.47 193.96 19.87 202.38 23.85 210.16
  C 26.48 215.33 30.21 217.88 35.47 219.97
  C 40.55 221.99 44.39 226.26 49.53 227.73
  C 56.83 229.81 64.73 226.86 72.19 227.87
  Q 84.64 229.56 92.80 238.98
  Q 101.84 249.42 105.12 251.65
  Q 111.06 255.68 116.84 259.95
  C 125.05 265.99 133.87 281.83 144.50 282.42
  C 148.20 282.63 153.07 281.95 156.76 284.03
  C 163.56 287.85 168.75 296.14 174.56 301.69
  C 180.79 307.64 188.23 305.50 195.84 303.38
  C 205.95 300.57 212.70 304.96 220.38 310.65
  C 227.54 315.96 231.02 314.22 239.00 312.69
  C 244.00 311.73 249.34 314.09 254.19 316.07
  Q 254.61 316.24 254.79 315.82
  L 259.03 306.20
  Q 259.25 305.72 258.74 305.57
  L 235.80 298.97
  C 227.65 298.22 220.05 298.74 211.97 296.50
  Q 204.09 293.34 196.72 288.73
  C 188.70 283.72 183.32 280.29 175.75 279.55
  C 171.05 279.09 165.65 278.80 161.47 277.60
  Q 153.35 275.28 148.36 269.87
  C 142.28 263.29 134.42 258.91 129.32 252.18
  C 119.53 239.24 111.76 230.80 96.24 224.71
  Q 83.28 219.63 77.76 218.52
  C 58.55 214.66 42.10 212.51 31.84 194.53
  C 27.59 187.09 26.46 179.21 20.30 172.61
  Q 19.74 171.57 17.97 170.25
  Q 17.53 169.92 17.20 170.36
  L 10.16 179.74
  A 0.62 0.61 -44.2 0 0 10.14 180.46
  L 14.21 186.34
  Z
  M 125.86 291.29
  Q 133.91 292.17 141.96 293.18
  Q 149.13 294.09 152.75 295.93
  C 164.10 301.70 167.90 315.24 178.59 321.16
  C 184.08 324.20 189.24 322.80 194.92 321.50
  Q 202.64 319.74 212.39 320.41
  C 222.19 321.08 228.99 325.44 237.18 330.14
  Q 241.09 332.38 248.44 332.04
  Q 248.87 332.02 249.02 331.61
  L 253.60 318.55
  Q 253.73 318.19 253.40 317.99
  Q 248.44 315.01 242.80 314.56
  C 236.26 314.05 229.87 318.39 223.58 314.93
  C 216.57 311.08 211.98 305.09 202.63 304.27
  C 198.60 303.92 194.42 305.60 190.50 306.91
  C 182.06 309.75 173.64 304.46 168.44 298.04
  C 164.16 292.76 157.42 283.89 150.76 284.12
  C 145.99 284.29 142.12 284.75 137.82 282.14
  C 131.55 278.32 126.72 272.51 122.09 266.91
  C 116.76 260.45 107.42 256.26 101.40 250.61
  C 91.56 241.38 86.07 230.83 70.51 229.51
  C 63.79 228.94 55.34 231.74 48.05 229.16
  C 44.81 228.02 42.27 225.88 39.52 224.08
  C 34.56 220.83 28.83 219.96 24.97 215.02
  C 20.50 209.30 18.27 201.75 15.90 194.81
  Q 13.47 187.70 8.94 181.91
  A 0.60 0.59 47.7 0 0 8.04 181.86
  L 2.81 187.41
  Q 2.44 187.79 2.61 188.30
  C 7.50 202.75 9.51 219.39 21.62 229.34
  C 27.61 234.27 36.35 238.64 44.24 238.54
  Q 52.63 238.44 60.99 238.36
  Q 82.58 238.14 93.98 254.45
  Q 95.68 256.88 99.45 264.77
  C 104.80 275.94 111.74 289.75 125.86 291.29
  Z
  M 148.67 220.04
  C 153.84 234.02 158.66 245.61 174.50 249.15
  C 180.91 250.58 185.43 247.20 190.42 244.81
  Q 192.68 243.72 190.18 243.49
  C 172.53 241.82 157.32 230.82 147.93 216.17
  A 0.25 0.25 0.0 0 0 147.47 216.36
  Q 147.81 217.73 148.67 220.04
  Z
  M 227.17 263.01
  Q 230.08 270.47 236.13 275.62
  Q 241.00 279.77 247.13 277.31
  Q 247.83 277.03 247.21 276.59
  C 243.14 273.66 238.59 271.22 235.02 267.96
  Q 230.95 264.25 226.76 259.94
  Q 225.39 258.53 225.85 260.44
  C 225.98 260.98 226.87 262.26 227.17 263.01
  Z
  M 263.24 301.54
  L 255.15 320.41
  Q 254.52 321.89 256.12 322.03
  L 259.12 322.28
  Q 261.13 322.46 261.99 320.63
  L 268.93 305.96
  L 277.93 287.41
  A 0.76 0.75 -65.5 0 0 277.55 286.38
  L 269.09 282.83
  Q 268.66 282.65 268.60 283.12
  C 267.85 289.96 265.20 295.38 263.24 301.54
  Z"
/>
<path fill="#ff8b70" d="
  M 202.77 33.64
  L 209.73 52.29
  Q 207.00 57.19 208.07 62.74
  Q 208.86 66.88 209.64 71.03
  C 210.05 73.20 209.79 75.65 210.26 77.99
  Q 210.94 81.41 210.95 83.10
  Q 210.98 88.11 211.06 92.91
  Q 211.08 94.39 210.08 93.31
  Q 210.06 93.29 209.80 92.45
  C 209.03 71.86 206.40 51.25 195.26 33.62
  Q 194.91 33.08 195.55 32.97
  Q 197.27 32.68 199.26 32.56
  Q 201.50 32.42 202.77 33.64
  Z"
/>
<path fill="#ca3618" d="
  M 193.25 33.89
  C 202.66 49.34 206.30 65.67 207.21 83.50
  C 208.21 103.03 207.26 140.95 230.89 149.34
  C 232.99 150.08 235.36 150.75 237.12 151.95
  C 247.33 158.94 243.41 171.59 241.95 181.25
  C 239.71 196.04 251.56 202.16 256.85 213.67
  C 259.31 219.02 261.55 225.45 266.45 229.25
  Q 268.77 231.06 273.52 232.95
  Q 281.81 236.25 290.08 239.61
  A 0.19 0.18 32.2 0 1 290.15 239.91
  L 283.95 246.66
  Q 283.77 246.86 283.53 246.73
  C 279.72 244.58 275.62 242.98 272.66 239.80
  C 269.63 236.55 266.93 232.20 264.68 229.34
  C 262.93 227.11 261.25 224.61 259.03 222.95
  Q 255.98 220.66 249.68 216.62
  C 238.43 209.40 237.93 194.57 232.65 183.51
  Q 227.22 172.15 218.82 162.67
  C 213.17 156.30 207.32 149.41 204.42 141.64
  Q 201.73 134.42 201.07 126.69
  C 200.37 118.35 202.41 109.20 200.50 100.72
  C 198.51 91.83 191.18 83.42 191.33 74.50
  C 191.40 70.00 192.11 65.61 190.15 61.07
  C 186.63 52.89 183.56 46.22 182.39 37.27
  A 1.44 1.43 79.9 0 1 183.49 35.68
  L 192.53 33.58
  A 0.67 0.66 67.9 0 1 193.25 33.89
  Z"
/>
<path fill="#ca3618" d="
  M 202.77 33.64
  Q 214.27 46.26 218.31 65.00
  Q 221.18 78.30 220.21 89.25
  C 219.15 101.22 216.43 114.04 224.33 124.71
  C 230.95 133.67 241.96 133.70 250.18 140.07
  C 264.81 151.42 260.68 170.13 258.73 185.75
  Q 258.01 191.53 260.05 204.41
  Q 255.86 198.59 252.20 193.52
  Q 247.67 187.24 248.93 179.47
  C 250.89 167.29 252.28 156.65 242.08 148.15
  C 238.83 145.44 233.10 143.12 230.01 140.75
  Q 226.87 138.34 223.39 132.76
  C 219.49 124.58 216.68 118.58 215.89 108.48
  Q 214.12 85.70 211.49 63.00
  Q 210.89 57.79 209.73 52.29
  L 202.77 33.64
  Z"
/>
<path fill="#ff8b70" d="
  M 199.36 109.08
  Q 193.11 116.56 191.40 125.87
  Q 190.16 132.57 191.99 136.98
  Q 194.69 143.48 202.96 143.32
  Q 205.85 149.74 209.09 153.65
  C 216.42 162.49 224.52 171.35 229.70 181.66
  C 236.19 194.61 236.01 210.11 249.56 218.66
  C 254.60 221.84 258.83 224.38 262.35 229.38
  Q 266.68 235.54 271.67 241.69
  Q 270.36 241.94 268.64 240.26
  Q 268.27 239.90 267.76 239.81
  C 258.30 238.12 248.35 227.66 244.96 218.75
  Q 244.83 218.41 244.87 217.94
  Q 244.92 217.43 244.61 217.02
  Q 242.37 214.04 240.11 211.08
  Q 237.83 208.09 235.03 205.75
  Q 232.21 203.40 229.34 201.10
  C 225.44 197.97 221.06 195.49 216.75 192.88
  Q 216.26 192.58 216.35 193.15
  Q 216.62 194.94 217.58 196.52
  Q 217.83 196.94 217.91 197.43
  Q 218.24 199.57 219.84 200.87
  A 1.51 1.49 -22.2 0 0 220.59 201.18
  Q 221.37 201.27 221.71 201.82
  Q 221.90 202.13 222.22 202.31
  Q 229.42 206.32 233.95 213.08
  Q 235.92 216.02 236.13 216.32
  Q 237.94 218.86 238.30 219.58
  A 16.65 1.36 65.9 0 0 241.55 225.50
  L 247.68 235.09
  A 0.92 0.88 87.6 0 0 247.99 235.39
  Q 248.71 235.82 248.94 236.66
  Q 249.05 237.10 249.40 237.39
  Q 251.10 238.82 250.23 240.42
  C 243.64 231.20 238.50 221.37 231.90 212.34
  Q 226.68 205.20 218.89 201.86
  A 2.15 2.14 -88.7 0 1 217.75 200.66
  Q 215.60 194.91 212.97 189.27
  C 209.35 181.51 210.34 169.90 202.40 161.71
  C 194.17 153.22 184.26 155.67 182.44 140.50
  C 181.19 130.06 183.44 116.72 184.46 105.50
  C 185.04 99.16 181.37 93.20 178.31 87.19
  C 174.41 79.52 173.44 71.38 171.76 60.75
  C 170.47 52.61 165.39 46.18 158.59 41.85
  A 0.56 0.55 55.2 0 1 158.77 40.84
  L 179.37 36.32
  Q 180.35 36.11 180.48 37.10
  C 181.44 44.02 183.16 50.55 186.17 56.79
  C 187.99 60.59 189.65 63.39 189.56 67.20
  C 189.42 73.31 189.25 76.83 190.79 82.01
  Q 191.95 85.87 196.17 94.05
  Q 199.33 100.16 199.36 109.08
  Z"
/>
<path fill="#ca3618" d="
  M 111.63 57.12
  C 109.29 49.94 105.90 45.71 101.63 40.47
  A 0.34 0.33 -28.4 0 1 101.79 39.94
  C 114.08 36.08 121.27 44.51 124.30 55.33
  C 127.61 67.16 129.73 81.05 140.15 88.55
  C 149.15 95.04 156.22 100.36 161.36 110.59
  C 164.92 117.67 165.21 124.12 164.54 132.99
  Q 163.84 142.37 163.12 151.76
  C 161.91 167.55 167.69 183.81 181.55 192.21
  Q 188.35 196.32 199.15 198.27
  A 1.88 1.87 -19.6 0 1 200.02 198.68
  C 201.01 199.52 201.97 199.20 202.92 199.36
  C 216.36 201.66 226.18 205.76 233.24 217.48
  Q 239.52 227.89 246.13 238.08
  C 252.68 248.16 261.14 254.24 273.48 254.70
  C 277.17 254.83 281.76 253.72 286.00 253.57
  C 289.04 253.46 293.64 255.45 292.43 259.24
  Q 291.25 262.95 289.35 266.14
  A 0.75 0.75 0.0 0 1 288.34 266.42
  Q 284.52 264.33 280.22 263.58
  C 275.30 262.72 271.00 265.12 265.69 263.05
  Q 259.38 260.59 253.28 257.70
  C 249.12 255.73 246.98 253.21 244.65 248.86
  C 237.69 235.91 229.90 222.12 214.26 220.48
  C 207.87 219.81 203.72 216.26 198.44 213.56
  Q 196.09 212.36 192.49 212.26
  C 183.88 212.02 177.14 206.94 170.47 200.28
  C 162.81 192.63 160.00 185.79 157.14 174.82
  Q 153.86 162.21 154.39 149.00
  C 154.74 140.40 155.19 133.04 149.97 125.61
  C 141.22 113.16 132.75 100.89 122.13 90.13
  Q 116.90 84.82 114.69 78.20
  C 112.68 72.17 113.65 63.34 111.63 57.12
  Z"
/>
<path fill="#e7765c" d="
  M 132.72 104.64
  Q 129.53 104.56 127.30 106.59
  C 117.41 96.19 107.10 87.38 107.17 71.54
  C 107.22 59.87 102.52 52.05 94.39 44.08
  L 99.12 41.33
  Q 99.56 41.07 99.89 41.46
  C 105.37 47.73 109.96 54.30 110.65 62.00
  C 111.64 72.87 111.58 81.03 119.08 89.42
  C 123.64 94.52 128.41 99.31 132.72 104.64
  Z"
/>
<path fill="#ca3618" d="
  M 147.75 46.35
  L 154.97 42.34
  Q 155.48 42.05 156.00 42.34
  C 163.09 46.33 168.81 52.79 170.03 60.99
  C 171.15 68.53 171.97 76.64 174.69 83.37
  C 177.95 91.45 183.65 98.26 182.45 108.00
  C 180.97 120.13 179.23 131.83 180.90 143.26
  C 182.25 152.45 188.98 155.22 196.10 159.17
  C 207.76 165.64 206.85 176.58 210.56 187.66
  Q 212.61 193.77 215.50 199.82
  A 0.35 0.35 0.0 0 1 215.09 200.31
  L 202.89 197.06
  A 1.29 1.29 0.0 0 1 201.93 195.88
  C 201.51 186.50 198.01 178.57 189.86 173.83
  C 182.20 169.36 174.33 171.01 169.11 162.57
  C 166.45 158.26 164.70 153.97 165.39 148.77
  Q 167.38 133.77 166.72 121.77
  C 166.50 117.77 164.34 113.75 164.10 109.49
  C 164.00 107.80 163.50 106.17 163.56 104.50
  C 163.90 95.04 163.39 88.43 160.84 79.48
  Q 156.08 62.73 147.30 47.99
  A 1.19 1.18 -29.7 0 1 147.75 46.35
  Z"
/>
<path fill="#ca3618" d="
  M 94.39 44.08
  C 102.52 52.05 107.22 59.87 107.17 71.54
  C 107.10 87.38 117.41 96.19 127.30 106.59
  Q 136.10 117.97 138.43 121.57
  C 142.56 127.97 148.62 137.90 148.32 142.00
  C 146.62 165.50 149.29 188.68 166.72 205.52
  C 175.56 214.06 181.66 219.33 192.67 220.41
  Q 195.11 220.65 197.10 221.79
  C 201.24 224.17 204.68 226.64 209.42 227.86
  C 213.29 228.86 216.74 227.80 220.41 229.88
  C 227.49 233.91 233.35 242.30 237.95 249.25
  C 241.70 254.93 244.97 259.46 249.77 262.01
  Q 256.35 265.52 263.30 269.07
  L 250.33 275.56
  Q 249.46 275.99 248.66 275.43
  C 244.87 272.76 238.80 269.54 236.30 266.95
  Q 226.00 256.24 217.63 249.39
  Q 207.84 241.38 194.76 243.48
  Q 194.27 243.56 193.83 243.32
  C 192.77 242.73 191.85 242.03 190.64 241.80
  C 185.37 240.80 180.48 240.17 175.55 237.84
  C 161.14 231.03 151.12 221.41 145.42 206.53
  C 144.93 205.26 143.88 204.23 143.53 202.95
  Q 141.63 195.93 137.49 189.95
  Q 137.20 189.53 137.16 189.02
  C 136.95 186.37 135.56 184.29 135.17 181.95
  C 133.53 172.10 130.35 161.47 128.75 152.86
  C 126.32 139.71 124.89 126.63 116.59 115.96
  C 111.80 109.80 103.79 102.72 99.45 97.71
  Q 84.18 80.11 78.00 57.27
  Q 77.60 55.79 77.46 54.66
  Q 77.37 53.98 77.97 53.63
  L 94.39 44.08
  Z"
/>
<path fill="#e7765c" d="
  M 209.73 52.29
  Q 210.89 57.79 211.49 63.00
  Q 214.12 85.70 215.89 108.48
  C 216.68 118.58 219.49 124.58 223.39 132.76
  L 217.29 134.26
  C 210.93 121.06 210.07 107.25 209.80 92.45
  Q 210.06 93.29 210.08 93.31
  Q 211.08 94.39 211.06 92.91
  Q 210.98 88.11 210.95 83.10
  Q 210.94 81.41 210.26 77.99
  C 209.79 75.65 210.05 73.20 209.64 71.03
  Q 208.86 66.88 208.07 62.74
  Q 207.00 57.19 209.73 52.29
  Z"
/>
<path fill="#ff8b70" d="
  M 75.62 55.72
  C 80.15 74.09 89.34 90.58 102.60 103.66
  C 113.68 114.60 121.39 122.95 124.20 138.25
  C 126.11 148.68 127.76 158.96 130.55 169.09
  C 131.94 174.15 132.46 180.62 134.54 186.11
  Q 135.05 187.42 133.96 186.52
  Q 123.40 177.75 109.63 180.30
  Q 109.11 180.40 108.85 179.93
  C 102.16 167.70 99.47 153.96 99.03 140.00
  Q 98.29 116.13 79.21 102.34
  Q 72.75 97.67 66.68 92.57
  C 59.94 86.90 55.07 77.76 55.68 68.66
  C 55.74 67.80 55.52 67.48 55.33 66.66
  A 0.61 0.60 -22.1 0 1 55.62 65.99
  L 74.85 55.38
  A 0.53 0.53 0.0 0 1 75.62 55.72
  Z
  M 121.77 179.02
  C 123.83 179.70 125.40 179.96 127.44 181.06
  Q 129.23 182.02 131.21 182.65
  Q 131.70 182.80 131.64 182.29
  L 130.88 175.57
  A 2.20 2.19 -81.8 0 0 129.57 173.81
  C 121.38 170.32 114.92 167.09 105.73 166.74
  A 0.90 0.90 0.0 0 0 104.84 167.92
  Q 106.43 172.87 108.57 177.46
  Q 109.25 178.92 111.00 178.55
  C 114.03 177.91 118.48 177.94 121.77 179.02
  Z"
/>
<path fill="#ca3618" d="
  M 76.88 148.46
  C 78.73 137.33 77.75 121.71 68.90 113.96
  C 64.04 109.70 57.20 108.36 51.59 104.79
  C 41.39 98.28 33.51 86.38 34.70 73.87
  A 1.60 1.60 0.0 0 1 36.02 72.45
  Q 45.03 70.93 53.26 66.95
  A 0.27 0.27 0.0 0 1 53.65 67.19
  Q 53.47 80.00 61.00 89.36
  C 66.84 96.61 76.47 101.32 83.57 108.13
  C 92.94 117.12 96.04 127.00 97.04 139.67
  Q 97.46 145.08 98.01 150.47
  Q 99.63 166.25 106.87 180.40
  A 0.20 0.20 0.0 0 1 106.75 180.68
  Q 98.66 183.10 90.32 184.94
  C 88.36 185.37 87.49 184.59 86.16 183.36
  Q 75.11 173.12 75.64 158.40
  C 75.74 155.61 76.36 151.56 76.88 148.46
  Z"
/>
<path fill="#ffffff" d="
  M 944.08 104.93
  C 948.36 116.40 945.69 132.67 933.58 137.98
  Q 925.55 141.51 917.28 138.68
  C 894.41 130.85 901.48 85.97 930.22 92.81
  Q 940.46 95.24 944.08 104.93
  Z
  M 924.8361 135.4300
  A 19.44 15.07 90.1 0 0 939.9400 116.0163
  A 19.44 15.07 90.1 0 0 924.9039 96.5500
  A 19.44 15.07 90.1 0 0 909.8000 115.9637
  A 19.44 15.07 90.1 0 0 924.8361 135.4300
  Z"
/>
<path fill="#ffffff" d="
  M 876.51 114.50
  L 893.79 93.16
  Q 893.94 92.98 894.17 92.98
  L 900.89 93.05
  A 0.18 0.18 0.0 0 1 901.03 93.35
  L 884.77 112.28
  A 0.41 0.39 48.4 0 0 884.75 112.77
  L 902.50 138.82
  Q 902.61 138.99 902.41 138.99
  L 895.83 138.99
  A 0.41 0.40 -17.4 0 1 895.50 138.82
  L 880.79 116.99
  Q 880.38 116.37 879.89 116.93
  L 876.42 120.90
  A 1.67 1.65 -24.6 0 0 876.01 121.99
  L 875.97 138.00
  A 0.99 0.99 0.0 0 1 874.99 138.98
  L 871.01 139.02
  A 1.01 1.01 0.0 0 1 869.99 138.01
  L 870.02 94.28
  Q 870.02 92.83 871.47 92.86
  L 874.72 92.93
  Q 875.99 92.95 875.99 94.22
  L 876.00 114.32
  Q 876.00 115.13 876.51 114.50
  Z"
/>
<path fill="#ffffff" d="
  M 628.89 116.93
  L 625.41 120.90
  A 1.67 1.65 -24.6 0 0 625.00 121.99
  L 625.00 138.25
  Q 625.00 139.00 624.25 139.00
  L 619.75 138.99
  Q 619.00 138.99 619.00 138.25
  L 619.00 93.99
  Q 619.00 92.98 620.01 92.99
  L 623.76 93.01
  Q 625.00 93.01 625.00 94.25
  L 625.00 114.19
  Q 625.00 115.12 625.58 114.40
  L 642.79 93.16
  Q 642.94 92.98 643.17 92.98
  L 649.90 93.05
  A 0.18 0.18 0.0 0 1 650.03 93.35
  L 633.77 112.28
  A 0.39 0.38 47.7 0 0 633.75 112.76
  L 651.44 138.75
  Q 651.61 139.00 651.30 139.00
  L 644.82 138.99
  A 0.40 0.38 71.6 0 1 644.50 138.82
  L 629.79 116.99
  Q 629.38 116.38 628.89 116.93
  Z"
/>
<path fill="#ffffff" d="
  M 681.20 124.47
  L 665.27 124.46
  A 0.34 0.34 0.0 0 0 664.94 124.69
  L 660.27 138.77
  A 0.34 0.34 0.0 0 1 659.94 139.00
  L 654.54 138.99
  A 0.34 0.34 0.0 0 1 654.22 138.54
  L 669.70 93.23
  A 0.34 0.34 0.0 0 1 670.02 93.00
  L 676.66 93.00
  A 0.34 0.34 0.0 0 1 676.98 93.23
  L 692.54 138.54
  A 0.34 0.34 0.0 0 1 692.21 138.99
  L 686.60 138.99
  A 0.34 0.34 0.0 0 1 686.28 138.76
  L 681.52 124.70
  A 0.34 0.34 0.0 0 0 681.20 124.47
  Z
  M 673.03 99.10
  L 666.49 119.57
  Q 666.35 120.00 666.80 120.00
  L 679.66 120.00
  A 0.32 0.32 0.0 0 0 679.97 119.58
  L 673.26 99.10
  Q 673.14 98.74 673.03 99.10
  Z"
/>
<path fill="#ffffff" d="
  M 705.00 118.61
  L 705.00 138.39
  A 0.61 0.61 0.0 0 1 704.39 139.00
  L 699.61 138.99
  A 0.61 0.61 0.0 0 1 699.00 138.38
  L 699.00 93.61
  A 0.61 0.61 0.0 0 1 699.61 93.00
  L 723.40 93.00
  A 0.61 0.61 0.0 0 1 724.01 93.61
  L 723.99 97.38
  A 0.61 0.61 0.0 0 1 723.38 97.99
  L 705.53 98.01
  A 0.61 0.61 0.0 0 0 704.92 98.62
  L 705.02 112.39
  A 0.61 0.61 0.0 0 0 705.63 113.00
  L 721.86 113.00
  A 0.61 0.61 0.0 0 1 722.47 113.61
  L 722.46 117.39
  A 0.61 0.61 0.0 0 1 721.85 118.00
  L 705.61 118.00
  A 0.61 0.61 0.0 0 0 705.00 118.61
  Z"
/>
<path fill="#ffffff" d="
  M 751.20 124.47
  L 735.28 124.46
  A 0.34 0.34 0.0 0 0 734.95 124.69
  L 730.26 138.77
  A 0.34 0.34 0.0 0 1 729.93 139.00
  L 724.54 138.98
  A 0.34 0.34 0.0 0 1 724.22 138.53
  L 739.70 93.23
  A 0.34 0.34 0.0 0 1 740.02 93.00
  L 746.66 93.00
  A 0.34 0.34 0.0 0 1 746.98 93.23
  L 762.54 138.54
  A 0.34 0.34 0.0 0 1 762.21 138.99
  L 756.59 138.99
  A 0.34 0.34 0.0 0 1 756.27 138.76
  L 751.52 124.70
  A 0.34 0.34 0.0 0 0 751.20 124.47
  Z
  M 743.03 99.10
  L 736.49 119.57
  Q 736.35 120.00 736.80 120.00
  L 749.67 120.00
  A 0.32 0.32 0.0 0 0 749.97 119.58
  L 743.26 99.10
  Q 743.14 98.74 743.03 99.10
  Z"
/>
<path fill="#ffffff" d="
  M 798.82 130.54
  L 798.42 93.42
  Q 798.41 93.00 798.83 93.00
  L 803.75 93.00
  Q 804.00 93.00 804.00 93.25
  L 804.00 138.50
  Q 804.00 139.00 803.50 139.00
  L 798.74 138.99
  Q 798.13 138.99 797.80 138.47
  C 790.08 126.30 781.62 114.03 775.20 101.14
  Q 774.75 100.23 774.76 101.24
  L 775.10 138.70
  Q 775.10 139.00 774.80 139.00
  L 769.76 138.99
  Q 769.53 138.99 769.53 138.76
  L 769.53 93.49
  Q 769.53 93.00 770.02 93.00
  L 775.31 93.00
  Q 775.85 93.00 776.14 93.45
  C 783.87 105.51 792.45 117.69 798.72 130.56
  Q 798.82 130.77 798.82 130.54
  Z"
/>
<path fill="#ffffff" d="
  M 838.20 124.47
  L 822.27 124.46
  A 0.34 0.34 0.0 0 0 821.94 124.69
  L 817.27 138.77
  A 0.34 0.34 0.0 0 1 816.94 139.00
  L 811.54 138.98
  A 0.34 0.34 0.0 0 1 811.22 138.53
  L 826.70 93.23
  A 0.34 0.34 0.0 0 1 827.02 93.00
  L 833.66 93.00
  A 0.34 0.34 0.0 0 1 833.98 93.23
  L 849.54 138.54
  A 0.34 0.34 0.0 0 1 849.21 138.99
  L 843.59 138.99
  A 0.34 0.34 0.0 0 1 843.27 138.76
  L 838.52 124.70
  A 0.34 0.34 0.0 0 0 838.20 124.47
  Z
  M 830.03 99.10
  L 823.49 119.57
  Q 823.35 120.00 823.80 120.00
  L 836.67 120.00
  A 0.32 0.32 0.0 0 0 836.97 119.58
  L 830.26 99.09
  Q 830.15 98.74 830.03 99.10
  Z"
/>
<path fill="#ffffff" d="
  M 989.04 125.09
  C 983.37 139.85 966.36 139.74 953.41 138.41
  Q 953.00 138.37 953.00 137.96
  L 953.00 94.56
  Q 953.00 94.19 953.37 94.12
  Q 965.38 91.87 974.98 94.00
  C 989.87 97.32 994.02 112.13 989.04 125.09
  Z
  M 958.99 98.71
  L 958.99 132.89
  A 1.27 1.27 0.0 0 0 960.26 134.16
  L 967.62 134.16
  A 17.11 16.48 0.0 0 0 984.73 117.68
  L 984.73 113.92
  A 17.11 16.48 -0.0 0 0 967.62 97.44
  L 960.26 97.44
  A 1.27 1.27 0.0 0 0 958.99 98.71
  Z"
/>
<path fill="#ff8b70" d="
  M 132.72 104.64
  Q 139.79 114.16 146.43 123.85
  C 150.21 129.37 152.94 134.62 152.71 141.25
  C 152.45 148.85 152.00 159.78 153.75 168.50
  C 155.60 177.68 158.32 188.65 164.44 196.29
  C 169.89 203.08 181.00 213.66 190.25 214.19
  C 194.33 214.43 196.31 214.62 199.96 216.76
  C 204.85 219.62 208.88 222.18 214.74 222.71
  Q 223.65 223.51 229.80 229.98
  Q 237.76 238.35 242.62 248.89
  C 245.17 254.42 248.43 257.23 254.22 260.00
  Q 260.98 263.24 266.00 265.19
  C 270.71 267.01 274.05 264.88 278.26 265.32
  Q 283.40 265.87 287.80 268.67
  A 0.14 0.14 0.0 0 1 287.85 268.86
  L 284.68 274.08
  Q 279.18 270.77 276.65 270.61
  Q 272.07 270.33 267.50 270.30
  L 263.30 269.07
  Q 256.35 265.52 249.77 262.01
  C 244.97 259.46 241.70 254.93 237.95 249.25
  C 233.35 242.30 227.49 233.91 220.41 229.88
  C 216.74 227.80 213.29 228.86 209.42 227.86
  C 204.68 226.64 201.24 224.17 197.10 221.79
  Q 195.11 220.65 192.67 220.41
  C 181.66 219.33 175.56 214.06 166.72 205.52
  C 149.29 188.68 146.62 165.50 148.32 142.00
  C 148.62 137.90 142.56 127.97 138.43 121.57
  Q 136.10 117.97 127.30 106.59
  Q 129.53 104.56 132.72 104.64
  Z"
/>
<path fill="#e7765c" d="
  M 199.36 109.08
  Q 198.97 113.71 198.85 119.25
  Q 198.59 131.57 202.96 143.32
  Q 194.69 143.48 191.99 136.98
  Q 190.16 132.57 191.40 125.87
  Q 193.11 116.56 199.36 109.08
  Z"
/>
<path fill="#ffcd49" d="
  M 336.51 269.25
  Q 336.37 269.09 336.18 269.01
  A 0.62 0.57 88.0 0 1 335.85 268.68
  C 334.94 266.46 334.16 264.60 334.13 262.12
  Q 333.87 234.62 333.41 207.13
  C 333.37 204.47 332.73 201.29 332.89 198.61
  Q 333.07 195.61 335.07 197.85
  Q 341.13 204.67 351.01 204.46
  C 368.37 204.08 377.56 192.67 380.40 176.47
  C 380.54 175.64 381.39 174.39 382.16 173.74
  C 391.56 165.78 399.20 156.28 395.23 143.00
  A 0.53 0.52 85.1 0 1 395.79 142.33
  Q 413.82 144.22 422.19 128.64
  A 0.86 0.85 27.9 0 1 423.35 128.29
  C 429.98 131.85 437.69 132.67 443.49 126.87
  Q 444.17 126.19 445.09 126.47
  L 451.82 128.51
  A 1.36 1.36 0.0 0 1 452.79 129.81
  Q 452.72 177.68 452.89 225.75
  Q 452.93 235.07 454.26 242.23
  C 455.00 246.20 458.58 248.41 462.38 246.50
  C 469.04 243.15 467.08 231.12 466.91 224.99
  Q 466.74 218.71 466.74 214.49
  Q 466.79 166.36 466.66 118.59
  A 0.86 0.85 12.6 0 1 467.88 117.82
  L 475.53 121.39
  A 1.34 1.33 11.1 0 1 476.30 122.53
  C 477.28 142.61 478.51 162.69 478.81 182.75
  Q 479.32 217.16 479.84 251.56
  Q 479.99 261.44 478.57 265.78
  C 475.23 275.98 468.06 279.87 457.58 283.13
  C 422.44 294.09 385.54 293.40 350.71 282.42
  Q 342.25 279.75 337.80 272.05
  Q 337.26 271.12 336.99 270.11
  Q 336.89 269.73 336.51 269.25
  Z
  M 439.2940 143.3466
  A 2.82 2.64 109.6 0 0 442.7270 141.5756
  A 2.82 2.64 109.6 0 0 441.1860 138.0334
  A 2.82 2.64 109.6 0 0 437.7530 139.8044
  A 2.82 2.64 109.6 0 0 439.2940 143.3466
  Z
  M 423.92 162.31
  A 2.48 2.48 0.0 0 0 421.44 159.83
  A 2.48 2.48 0.0 0 0 418.96 162.31
  A 2.48 2.48 0.0 0 0 421.44 164.79
  A 2.48 2.48 0.0 0 0 423.92 162.31
  Z
  M 395.3191 193.7214
  A 3.50 3.50 0.0 0 0 395.2068 188.7729
  L 393.8621 187.4879
  A 3.50 3.50 0.0 0 0 388.9136 187.6002
  L 388.3609 188.1786
  A 3.50 3.50 0.0 0 0 388.4732 193.1271
  L 389.8179 194.4121
  A 3.50 3.50 0.0 0 0 394.7664 194.2998
  L 395.3191 193.7214
  Z
  M 422.8844 195.5288
  A 3.64 3.32 94.5 0 0 426.4798 192.1605
  A 3.64 3.32 94.5 0 0 423.4556 188.2712
  A 3.64 3.32 94.5 0 0 419.8602 191.6395
  A 3.64 3.32 94.5 0 0 422.8844 195.5288
  Z
  M 403.05 215.48
  A 2.68 2.68 0.0 0 0 400.37 212.80
  A 2.68 2.68 0.0 0 0 397.69 215.48
  A 2.68 2.68 0.0 0 0 400.37 218.16
  A 2.68 2.68 0.0 0 0 403.05 215.48
  Z
  M 364.05 220.49
  A 2.68 2.68 0.0 0 0 361.37 217.81
  A 2.68 2.68 0.0 0 0 358.69 220.49
  A 2.68 2.68 0.0 0 0 361.37 223.17
  A 2.68 2.68 0.0 0 0 364.05 220.49
  Z
  M 421.9174 235.8102
  A 5.41 4.72 109.8 0 0 428.1910 232.3188
  A 5.41 4.72 109.8 0 0 425.5826 225.6298
  A 5.41 4.72 109.8 0 0 419.3090 229.1212
  A 5.41 4.72 109.8 0 0 421.9174 235.8102
  Z
  M 355.2539 250.9003
  A 4.57 4.23 107.0 0 0 360.6352 247.7667
  A 4.57 4.23 107.0 0 0 357.9261 242.1597
  A 4.57 4.23 107.0 0 0 352.5448 245.2933
  A 4.57 4.23 107.0 0 0 355.2539 250.9003
  Z
  M 404.0827 248.9914
  A 2.72 2.53 96.7 0 0 406.9127 246.5852
  A 2.72 2.53 96.7 0 0 404.7173 243.5886
  A 2.72 2.53 96.7 0 0 401.8873 245.9948
  A 2.72 2.53 96.7 0 0 404.0827 248.9914
  Z
  M 440.47 256.20
  A 2.71 2.71 0.0 0 0 437.76 253.49
  A 2.71 2.71 0.0 0 0 435.05 256.20
  A 2.71 2.71 0.0 0 0 437.76 258.91
  A 2.71 2.71 0.0 0 0 440.47 256.20
  Z
  M 386.72 257.03
  A 2.66 2.66 0.0 0 0 384.06 254.37
  A 2.66 2.66 0.0 0 0 381.40 257.03
  A 2.66 2.66 0.0 0 0 384.06 259.69
  A 2.66 2.66 0.0 0 0 386.72 257.03
  Z"
/>
<path fill="#000000" d="
  M 509.79 238.30
  C 505.42 240.79 496.82 245.00 493.03 239.63
  Q 492.02 238.20 492.01 235.63
  Q 491.97 224.74 491.94 213.86
  C 491.93 210.12 490.99 206.61 490.98 202.93
  Q 490.95 192.30 490.42 181.68
  C 490.26 178.42 489.01 174.71 489.00 171.00
  Q 488.97 158.61 488.97 146.73
  A 2.87 2.84 69.8 0 1 489.95 144.57
  Q 494.37 140.73 498.53 136.29
  C 506.38 127.91 514.16 131.78 518.65 140.78
  C 520.81 145.11 521.25 151.20 522.20 156.30
  C 523.90 165.41 522.62 174.81 523.76 184.09
  Q 524.00 186.01 524.01 187.42
  C 524.07 199.61 525.54 213.41 520.89 225.09
  C 518.87 230.14 514.39 235.68 509.79 238.30
  Z
  M 496.08 228.22
  L 496.47 237.16
  A 0.58 0.58 0.0 0 0 496.98 237.71
  C 503.27 238.53 510.00 234.22 513.68 229.42
  Q 519.99 221.19 520.04 208.75
  Q 520.09 193.50 519.91 178.25
  C 519.89 176.72 519.07 175.02 519.04 173.41
  Q 518.87 164.06 517.87 154.76
  C 517.03 146.90 512.46 127.66 500.54 139.32
  Q 496.69 143.08 492.79 146.90
  Q 492.43 147.25 492.45 147.75
  Q 493.01 168.58 494.27 189.38
  C 495.05 202.21 495.15 214.95 495.90 227.70
  Q 495.91 227.74 495.89 227.78
  Q 495.85 227.92 495.99 228.03
  Q 496.08 228.11 496.08 228.22
  Z"
/>
<path fill="#ff8b70" d="
  M 223.39 132.76
  Q 226.87 138.34 230.01 140.75
  C 233.10 143.12 238.83 145.44 242.08 148.15
  C 252.28 156.65 250.89 167.29 248.93 179.47
  Q 247.67 187.24 252.20 193.52
  Q 255.86 198.59 260.05 204.41
  L 264.92 215.54
  Q 265.76 219.23 268.07 222.13
  C 269.71 224.20 274.19 226.57 276.76 227.10
  Q 286.04 229.04 294.85 232.75
  L 291.89 237.42
  Q 291.60 237.89 291.07 237.74
  C 284.50 235.96 277.85 232.78 271.53 230.20
  C 265.92 227.90 263.41 223.43 260.76 217.32
  C 257.73 210.31 254.39 205.22 249.49 199.06
  C 244.96 193.37 242.55 188.55 243.74 181.75
  C 245.55 171.44 248.75 158.96 239.34 151.40
  C 236.99 149.52 233.81 148.50 230.76 147.39
  C 224.66 145.17 220.16 140.28 217.29 134.26
  L 223.39 132.76
  Z"
/>
<ellipse fill="#ffffff" cx="0.00" cy="0.00" transform="translate(440.24,140.69) rotate(109.6)" rx="2.82" ry="2.64"/>
<path fill="#ca3618" d="
  M 32.43 151.16
  Q 35.85 148.15 40.41 146.91
  C 50.00 144.31 53.28 158.16 55.46 164.34
  C 58.18 172.02 61.21 177.20 67.28 181.98
  C 84.48 195.55 101.28 179.73 119.12 182.12
  Q 134.94 184.23 140.19 200.17
  Q 143.94 211.55 147.51 223.01
  C 151.85 236.92 160.66 248.85 175.50 251.44
  C 181.50 252.49 187.06 248.22 191.74 246.46
  C 202.10 242.60 214.16 246.96 220.71 255.38
  C 223.28 258.67 225.36 263.58 227.37 267.71
  C 230.67 274.49 238.84 283.15 247.38 279.02
  Q 253.12 276.24 258.69 273.17
  C 261.65 271.54 267.63 269.37 267.22 275.75
  Q 266.72 283.56 265.73 288.04
  Q 265.61 288.57 265.09 288.75
  C 259.56 290.67 250.85 292.31 245.57 289.44
  Q 240.55 286.71 238.92 286.27
  C 234.92 285.20 230.33 285.04 226.96 283.68
  C 213.02 278.09 207.27 256.82 188.62 255.05
  C 182.24 254.44 177.27 257.64 170.59 255.92
  C 167.60 255.16 163.48 252.28 160.44 249.88
  Q 151.67 242.94 142.06 237.20
  Q 139.11 235.45 135.22 231.00
  C 131.64 226.90 128.47 221.49 125.26 216.57
  C 119.34 207.54 111.20 201.72 100.55 199.53
  C 95.11 198.40 89.52 199.68 83.87 199.26
  Q 61.33 197.56 49.99 178.86
  C 47.36 174.53 45.66 168.62 43.63 163.87
  C 42.16 160.42 36.71 151.38 32.43 151.16
  Z"
/>
<path fill="#ffffff" d="
  M 891.77 149.56
  L 871.45 167.92
  A 0.32 0.32 0.0 0 1 871.24 168.00
  L 850.96 168.00
  A 0.32 0.32 0.0 0 1 850.70 167.49
  L 864.70 149.13
  A 0.32 0.32 0.0 0 1 864.96 149.00
  L 891.56 149.00
  A 0.32 0.32 0.0 0 1 891.77 149.56
  Z"
/>
<path fill="#ff8b70" d="
  M 32.43 151.16
  Q 32.26 151.61 32.36 152.08
  Q 32.45 152.46 32.87 152.80
  Q 39.60 158.34 41.97 164.75
  C 46.88 178.02 52.02 188.76 64.95 195.78
  Q 74.47 200.96 84.50 201.28
  C 91.31 201.50 99.40 199.74 107.87 203.79
  Q 117.61 208.44 123.51 217.47
  C 128.31 224.81 133.20 232.98 140.23 238.05
  Q 142.84 239.94 150.37 244.56
  C 149.99 245.60 148.82 246.32 148.67 247.19
  Q 148.54 247.97 149.14 248.75
  A 0.49 0.49 0.0 0 1 148.88 249.52
  Q 148.68 249.58 148.30 249.53
  Q 139.89 245.17 136.24 242.31
  C 129.88 237.34 126.53 232.02 122.25 225.99
  C 116.96 218.52 108.54 209.09 99.50 207.03
  Q 93.89 205.76 82.75 204.85
  C 68.63 203.69 53.30 197.27 46.64 183.82
  C 41.60 173.63 36.36 163.17 27.45 155.84
  Q 29.62 153.00 32.43 151.16
  Z"
/>
<path fill="#ca3618" d="
  M 27.45 155.84
  C 36.36 163.17 41.60 173.63 46.64 183.82
  C 53.30 197.27 68.63 203.69 82.75 204.85
  Q 93.89 205.76 99.50 207.03
  C 108.54 209.09 116.96 218.52 122.25 225.99
  C 126.53 232.02 129.88 237.34 136.24 242.31
  Q 139.89 245.17 148.30 249.53
  C 159.41 256.52 165.59 266.59 180.72 263.63
  Q 183.36 263.11 185.72 262.91
  C 195.81 263.99 203.85 273.13 210.48 279.96
  C 215.35 284.99 220.32 288.49 226.62 290.12
  Q 234.53 292.17 239.99 294.94
  C 241.35 295.63 243.08 296.29 244.25 296.53
  Q 250.22 297.74 262.46 296.83
  L 260.02 303.79
  Q 259.87 304.22 259.45 304.05
  Q 253.48 301.76 242.73 298.56
  Q 236.62 296.74 232.50 296.71
  C 222.40 296.62 213.91 296.19 205.32 291.67
  C 199.62 288.68 193.11 283.34 186.92 280.75
  C 180.49 278.05 173.70 277.39 167.00 276.73
  C 160.20 276.05 155.66 273.66 149.58 268.84
  C 148.46 267.95 146.97 267.77 146.00 267.00
  C 143.92 265.34 142.46 262.72 140.40 260.92
  Q 131.38 253.06 124.71 243.06
  Q 122.06 239.11 114.21 233.06
  Q 104.90 225.88 90.98 220.86
  Q 78.99 216.54 72.00 215.27
  C 54.18 212.03 39.69 208.40 31.89 190.16
  C 28.14 181.38 26.04 174.64 18.73 168.35
  Q 18.36 168.03 18.65 167.65
  L 27.45 155.84
  Z"
/>
<circle fill="#ffffff" cx="421.44" cy="162.31" r="2.48"/>
<path fill="#e7765c" d="
  M 121.77 179.02
  C 118.48 177.94 114.03 177.91 111.00 178.55
  Q 109.25 178.92 108.57 177.46
  Q 106.43 172.87 104.84 167.92
  A 0.90 0.90 0.0 0 1 105.73 166.74
  C 114.92 167.09 121.38 170.32 129.57 173.81
  A 2.20 2.19 -81.8 0 1 130.88 175.57
  L 131.64 182.29
  Q 131.70 182.80 131.21 182.65
  Q 129.23 182.02 127.44 181.06
  C 125.40 179.96 123.83 179.70 121.77 179.02
  Z"
/>
<path fill="#e7765c" d="
  M 20.30 172.61
  L 16.87 184.50
  A 1.39 1.35 80.5 0 1 16.38 185.21
  Q 15.40 185.95 14.21 186.34
  L 10.14 180.46
  A 0.62 0.61 -44.2 0 1 10.16 179.74
  L 17.20 170.36
  Q 17.53 169.92 17.97 170.25
  Q 19.74 171.57 20.30 172.61
  Z"
/>
<path fill="#ffffff" d="
  M 834.67 235.66
  C 840.83 261.53 871.54 262.77 892.02 256.52
  Q 892.53 256.36 892.65 256.88
  L 896.39 274.11
  A 0.57 0.57 0.0 0 1 896.02 274.77
  C 884.35 278.84 870.84 279.53 858.38 278.59
  C 823.84 275.98 800.69 252.10 806.97 216.64
  C 813.90 177.58 855.05 167.52 888.50 173.86
  Q 893.45 174.80 897.28 176.37
  Q 897.86 176.61 897.69 177.21
  L 892.64 194.76
  A 0.40 0.39 -71.8 0 1 892.13 195.02
  C 878.97 190.27 862.77 189.42 850.09 195.84
  C 835.38 203.28 831.06 220.55 834.67 235.66
  Z"
/>
<path fill="#ff8b70" d="
  M 20.30 172.61
  C 26.46 179.21 27.59 187.09 31.84 194.53
  C 42.10 212.51 58.55 214.66 77.76 218.52
  Q 83.28 219.63 96.24 224.71
  C 111.76 230.80 119.53 239.24 129.32 252.18
  C 134.42 258.91 142.28 263.29 148.36 269.87
  Q 153.35 275.28 161.47 277.60
  C 165.65 278.80 171.05 279.09 175.75 279.55
  C 183.32 280.29 188.70 283.72 196.72 288.73
  Q 204.09 293.34 211.97 296.50
  C 214.16 311.62 229.58 308.81 235.80 298.97
  L 258.74 305.57
  Q 259.25 305.72 259.03 306.20
  L 254.79 315.82
  Q 254.61 316.24 254.19 316.07
  C 249.34 314.09 244.00 311.73 239.00 312.69
  C 231.02 314.22 227.54 315.96 220.38 310.65
  C 212.70 304.96 205.95 300.57 195.84 303.38
  C 188.23 305.50 180.79 307.64 174.56 301.69
  C 168.75 296.14 163.56 287.85 156.76 284.03
  C 153.07 281.95 148.20 282.63 144.50 282.42
  C 133.87 281.83 125.05 265.99 116.84 259.95
  Q 111.06 255.68 105.12 251.65
  Q 101.84 249.42 92.80 238.98
  Q 84.64 229.56 72.19 227.87
  C 64.73 226.86 56.83 229.81 49.53 227.73
  C 44.39 226.26 40.55 221.99 35.47 219.97
  C 30.21 217.88 26.48 215.33 23.85 210.16
  C 19.87 202.38 18.47 193.96 14.21 186.34
  Q 15.40 185.95 16.38 185.21
  A 1.39 1.35 80.5 0 0 16.87 184.50
  L 20.30 172.61
  Z"
/>
<path fill="#ffffff" d="
  M 643.41 195.77
  Q 641.59 236.65 639.25 277.52
  Q 639.23 278.00 638.74 278.00
  L 615.50 278.00
  Q 615.00 278.00 615.04 277.50
  L 622.35 174.67
  Q 622.40 174.00 623.08 174.00
  L 656.75 174.00
  Q 657.36 174.00 657.55 174.58
  C 665.21 197.90 672.91 221.10 678.32 244.90
  Q 678.76 246.82 679.27 244.92
  C 683.29 230.06 687.55 215.49 692.87 200.58
  Q 697.54 187.47 702.25 174.37
  Q 702.38 174.00 702.78 174.00
  L 736.19 174.00
  A 0.47 0.47 0.0 0 1 736.66 174.44
  L 742.96 277.50
  Q 743.00 278.00 742.50 278.00
  L 718.05 278.00
  Q 717.44 278.00 717.40 277.39
  Q 715.24 237.23 714.52 197.02
  Q 714.47 194.16 713.70 196.92
  C 706.25 223.57 696.30 249.68 687.28 275.87
  A 0.60 0.58 -80.0 0 1 686.73 276.27
  L 667.03 276.26
  Q 666.64 276.26 666.52 275.89
  C 656.19 242.79 649.74 223.37 643.77 195.86
  Q 643.75 195.79 643.69 195.76
  Q 643.54 195.71 643.44 195.73
  Q 643.41 195.74 643.41 195.77
  Z"
/>
<rect fill="#ffffff" x="762.75" y="174.00" width="26.24" height="104.00" rx="0.43"/>
<path fill="#ffffff" d="
  M 941.00 234.35
  L 941.00 258.39
  A 0.35 0.35 0.0 0 0 941.35 258.74
  L 988.32 258.74
  A 0.35 0.35 0.0 0 1 988.67 259.09
  L 988.67 277.65
  A 0.35 0.35 0.0 0 1 988.32 278.00
  L 915.10 278.00
  A 0.35 0.35 0.0 0 1 914.75 277.65
  L 914.75 174.35
  A 0.35 0.35 0.0 0 1 915.10 174.00
  L 985.90 174.00
  A 0.35 0.35 0.0 0 1 986.25 174.35
  L 986.25 192.91
  A 0.35 0.35 0.0 0 1 985.90 193.26
  L 941.35 193.26
  A 0.35 0.35 0.0 0 0 941.00 193.61
  L 941.00 214.40
  A 0.35 0.35 0.0 0 0 941.35 214.75
  L 983.32 214.75
  A 0.35 0.35 0.0 0 1 983.67 215.10
  L 983.67 233.65
  A 0.35 0.35 0.0 0 1 983.32 234.00
  L 941.35 234.00
  A 0.35 0.35 0.0 0 0 941.00 234.35
  Z"
/>
<path fill="#ca3618" d="
  M 125.86 291.29
  C 111.74 289.75 104.80 275.94 99.45 264.77
  Q 95.68 256.88 93.98 254.45
  Q 82.58 238.14 60.99 238.36
  Q 52.63 238.44 44.24 238.54
  C 36.35 238.64 27.61 234.27 21.62 229.34
  C 9.51 219.39 7.50 202.75 2.61 188.30
  Q 2.44 187.79 2.81 187.41
  L 8.04 181.86
  A 0.60 0.59 47.7 0 1 8.94 181.91
  Q 13.47 187.70 15.90 194.81
  C 18.27 201.75 20.50 209.30 24.97 215.02
  C 28.83 219.96 34.56 220.83 39.52 224.08
  C 42.27 225.88 44.81 228.02 48.05 229.16
  C 55.34 231.74 63.79 228.94 70.51 229.51
  C 86.07 230.83 91.56 241.38 101.40 250.61
  C 107.42 256.26 116.76 260.45 122.09 266.91
  C 126.72 272.51 131.55 278.32 137.82 282.14
  C 142.12 284.75 145.99 284.29 150.76 284.12
  C 157.42 283.89 164.16 292.76 168.44 298.04
  C 173.64 304.46 182.06 309.75 190.50 306.91
  C 194.42 305.60 198.60 303.92 202.63 304.27
  C 211.98 305.09 216.57 311.08 223.58 314.93
  C 229.87 318.39 236.26 314.05 242.80 314.56
  Q 248.44 315.01 253.40 317.99
  Q 253.73 318.19 253.60 318.55
  L 249.02 331.61
  Q 248.87 332.02 248.44 332.04
  Q 241.09 332.38 237.18 330.14
  C 228.99 325.44 222.19 321.08 212.39 320.41
  Q 202.64 319.74 194.92 321.50
  C 189.24 322.80 184.08 324.20 178.59 321.16
  C 167.90 315.24 164.10 301.70 152.75 295.93
  Q 149.13 294.09 141.96 293.18
  Q 133.91 292.17 125.86 291.29
  Z"
/>
<rect fill="#ffffff" x="-4.43" y="-3.90" transform="translate(391.84,190.95) rotate(43.7)" width="8.86" height="7.80" rx="3.50"/>
<ellipse fill="#ffffff" cx="0.00" cy="0.00" transform="translate(423.17,191.90) rotate(94.5)" rx="3.64" ry="3.32"/>
<path fill="#e7765c" d="
  M 271.67 241.69
  Q 276.22 245.46 282.03 247.83
  Q 282.50 248.02 282.19 248.43
  C 280.74 250.30 278.85 252.80 276.80 252.90
  Q 259.63 253.70 250.23 240.42
  Q 251.10 238.82 249.40 237.39
  Q 249.05 237.10 248.94 236.66
  Q 248.71 235.82 247.99 235.39
  A 0.92 0.88 87.6 0 1 247.68 235.09
  L 241.55 225.50
  A 16.65 1.36 65.9 0 1 238.30 219.58
  Q 237.94 218.86 236.13 216.32
  Q 235.92 216.02 233.95 213.08
  Q 229.42 206.32 222.22 202.31
  Q 221.90 202.13 221.71 201.82
  Q 221.37 201.27 220.59 201.18
  A 1.51 1.49 -22.2 0 1 219.84 200.87
  Q 218.24 199.57 217.91 197.43
  Q 217.83 196.94 217.58 196.52
  Q 216.62 194.94 216.35 193.15
  Q 216.26 192.58 216.75 192.88
  C 221.06 195.49 225.44 197.97 229.34 201.10
  Q 232.21 203.40 235.03 205.75
  Q 237.83 208.09 240.11 211.08
  Q 242.37 214.04 244.61 217.02
  Q 244.92 217.43 244.87 217.94
  Q 244.83 218.41 244.96 218.75
  C 248.35 227.66 258.30 238.12 267.76 239.81
  Q 268.27 239.90 268.64 240.26
  Q 270.36 241.94 271.67 241.69
  Z"
/>
<circle fill="#ffffff" cx="400.37" cy="215.48" r="2.68"/>
<path fill="#e7765c" d="
  M 148.67 220.04
  Q 147.81 217.73 147.47 216.36
  A 0.25 0.25 0.0 0 1 147.93 216.17
  C 157.32 230.82 172.53 241.82 190.18 243.49
  Q 192.68 243.72 190.42 244.81
  C 185.43 247.20 180.91 250.58 174.50 249.15
  C 158.66 245.61 153.84 234.02 148.67 220.04
  Z"
/>
<path fill="#ca3618" d="
  M 264.92 215.54
  C 273.24 227.22 282.78 224.85 294.97 225.58
  Q 296.80 225.69 296.32 227.46
  L 294.85 232.75
  Q 286.04 229.04 276.76 227.10
  C 274.19 226.57 269.71 224.20 268.07 222.13
  Q 265.76 219.23 264.92 215.54
  Z"
/>
<circle fill="#ffffff" cx="361.37" cy="220.49" r="2.68"/>
<ellipse fill="#ffffff" cx="0.00" cy="0.00" transform="translate(423.75,230.72) rotate(109.8)" rx="5.41" ry="4.72"/>
<ellipse fill="#ffffff" cx="0.00" cy="0.00" transform="translate(356.59,246.53) rotate(107.0)" rx="4.57" ry="4.23"/>
<ellipse fill="#ffffff" cx="0.00" cy="0.00" transform="translate(404.40,246.29) rotate(96.7)" rx="2.72" ry="2.53"/>
<path fill="#e7765c" d="
  M 150.37 244.56
  C 158.98 250.79 167.90 260.57 179.54 257.94
  Q 184.76 256.77 190.08 257.47
  Q 189.00 257.90 189.04 258.73
  Q 189.06 259.25 188.72 259.63
  L 185.72 262.91
  Q 183.36 263.11 180.72 263.63
  C 165.59 266.59 159.41 256.52 148.30 249.53
  Q 148.68 249.58 148.88 249.52
  A 0.49 0.49 0.0 0 0 149.14 248.75
  Q 148.54 247.97 148.67 247.19
  C 148.82 246.32 149.99 245.60 150.37 244.56
  Z"
/>
<circle fill="#ffffff" cx="437.76" cy="256.20" r="2.71"/>
<circle fill="#ffffff" cx="384.06" cy="257.03" r="2.66"/>
<path fill="#ff8b70" d="
  M 190.08 257.47
  C 207.37 260.27 212.51 281.80 229.56 286.41
  Q 229.66 286.44 234.95 287.13
  C 241.19 287.95 245.61 292.85 252.00 292.95
  Q 258.30 293.04 264.15 290.95
  A 0.35 0.35 0.0 0 1 264.59 291.41
  L 262.46 296.83
  Q 250.22 297.74 244.25 296.53
  C 243.08 296.29 241.35 295.63 239.99 294.94
  Q 234.53 292.17 226.62 290.12
  C 220.32 288.49 215.35 284.99 210.48 279.96
  C 203.85 273.13 195.81 263.99 185.72 262.91
  L 188.72 259.63
  Q 189.06 259.25 189.04 258.73
  Q 189.00 257.90 190.08 257.47
  Z"
/>
<path fill="#e7765c" d="
  M 227.17 263.01
  C 226.87 262.26 225.98 260.98 225.85 260.44
  Q 225.39 258.53 226.76 259.94
  Q 230.95 264.25 235.02 267.96
  C 238.59 271.22 243.14 273.66 247.21 276.59
  Q 247.83 277.03 247.13 277.31
  Q 241.00 279.77 236.13 275.62
  Q 230.08 270.47 227.17 263.01
  Z"
/>
<path fill="#ca3618" d="
  M 267.50 270.30
  Q 272.07 270.33 276.65 270.61
  Q 279.18 270.77 284.68 274.08
  L 279.33 284.39
  Q 279.01 285.00 278.38 284.73
  L 269.50 281.03
  A 0.73 0.73 0.0 0 1 269.06 280.25
  C 269.51 276.92 270.26 272.88 267.50 270.30
  Z"
/>
<path fill="#e7765c" d="
  M 268.93 305.96
  L 263.24 301.54
  C 265.20 295.38 267.85 289.96 268.60 283.12
  Q 268.66 282.65 269.09 282.83
  L 277.55 286.38
  A 0.76 0.75 -65.5 0 1 277.93 287.41
  L 268.93 305.96
  Z"
/>
<path fill="#e7765c" d="
  M 211.97 296.50
  C 220.05 298.74 227.65 298.22 235.80 298.97
  C 229.58 308.81 214.16 311.62 211.97 296.50
  Z"
/>
<path fill="#ca3618" d="
  M 263.24 301.54
  L 268.93 305.96
  L 261.99 320.63
  Q 261.13 322.46 259.12 322.28
  L 256.12 322.03
  Q 254.52 321.89 255.15 320.41
  L 263.24 301.54
  Z"
/>
</svg>
